<svg xmlns:dc="http://purl.org/dc/elements/1.1/" xmlns:cc="http://creativecommons.org/ns#" xmlns:rdf="http://www.w3.org/1999/02/22-rdf-syntax-ns#" xmlns:svg="http://www.w3.org/2000/svg" xmlns="http://www.w3.org/2000/svg" xmlns:sodipodi="http://sodipodi.sourceforge.net/DTD/sodipodi-0.dtd" xmlns:inkscape="http://www.inkscape.org/namespaces/inkscape" width="535.3128520669959" height="109.23463691913116" version="1.1" sodipodi:docname="squad health care logo _noNetEng.svg" inkscape:version="0.92.4 (5da689c313, 2019-01-14)"><rect id="backgroundrect" width="100%" height="100%" x="0" y="0" fill="none" stroke="none" class="selected" style=""/>
  <defs id="defs2"/>
  <sodipodi:namedview id="base" pagecolor="#ffffff" bordercolor="#666666" borderopacity="1.0" inkscape:pageopacity="0.0" inkscape:pageshadow="2" inkscape:zoom="0.50204582" inkscape:cx="774.43371" inkscape:cy="618.50458" inkscape:document-units="mm" inkscape:current-layer="layer1" showgrid="true" showguides="true" inkscape:snap-grids="true" inkscape:snap-page="true" inkscape:snap-intersection-paths="true" inkscape:snap-smooth-nodes="true" inkscape:object-paths="true" inkscape:window-width="1920" inkscape:window-height="1018" inkscape:window-x="-8" inkscape:window-y="-8" inkscape:window-maximized="1">
    <inkscape:grid type="xygrid" id="grid3798"/>
  </sodipodi:namedview>
  <metadata id="metadata5">
    <rdf:RDF>
      <cc:Work rdf:about="">
        <dc:format>image/svg+xml</dc:format>
        <dc:type rdf:resource="http://purl.org/dc/dcmitype/StillImage"/>
        <dc:title/>
      </cc:Work>
    </rdf:RDF>
  </metadata>
  
<g class="currentLayer" style=""><title>Layer 1</title>
    
    <flowRoot xml:space="preserve" id="flowRoot3756" style="fill:black;fill-opacity:1;stroke:none;font-family:Webdings;font-style:normal;font-weight:normal;font-size:40px;line-height:1.25;letter-spacing:0px;word-spacing:0px;-inkscape-font-specification:Webdings;font-stretch:normal;font-variant:normal;"><flowRegion id="flowRegion3758" style="-inkscape-font-specification:Webdings;font-family:Webdings;font-weight:normal;font-style:normal;font-stretch:normal;font-variant:normal;"><rect id="rect3760" width="121.12676239013672" height="106.33802795410156" x="284.5070495605469" y="705.6182861328125" style="-inkscape-font-specification:Webdings;font-family:Webdings;font-weight:normal;font-style:normal;font-stretch:normal;font-variant:normal;"/></flowRegion><flowPara id="flowPara3762"/></flowRoot>    <text xml:space="preserve" style="font-style:normal;font-weight:normal;font-size:10.58333302px;line-height:1.25;font-family:'Nokia Pure Symbols';letter-spacing:0px;word-spacing:0px;fill:#000000;fill-opacity:1;stroke:none;stroke-width:0.26458332;-inkscape-font-specification:'Nokia Pure Symbols';font-stretch:normal;font-variant:normal;" x="89.809273" y="192.8436" id="text3766" class=""/>
    <g aria-label="S" inkscape:transform-center-y="0.5589789" style="font-style:normal;font-variant:normal;font-weight:bold;font-stretch:normal;font-size:28.22222137px;line-height:1.25;font-family:Calibri;-inkscape-font-specification:'Calibri Bold';letter-spacing:0px;word-spacing:0px;fill:#ffffff;fill-opacity:1;stroke:none;stroke-width:0.26458332" id="text3813" class=""/>
    <flowRoot xml:space="preserve" id="flowRoot3815" style="fill:black;fill-opacity:1;stroke:none;font-family:sans-serif;font-style:normal;font-weight:normal;font-size:40px;line-height:1.25;letter-spacing:0px;word-spacing:0px"><flowRegion id="flowRegion3817"><rect id="rect3819" width="10" height="50" x="180" y="592.5197143554688"/></flowRegion><flowPara id="flowPara3821"/></flowRoot>    <g aria-label="H" inkscape:transform-center-y="0.5589789" style="font-style:normal;font-variant:normal;font-weight:bold;font-stretch:normal;font-size:24.69444656px;line-height:1.25;font-family:Calibri;-inkscape-font-specification:'Calibri Bold';letter-spacing:0px;word-spacing:0px;fill:#ffffff;fill-opacity:1;stroke:none;stroke-width:0.26458332" id="text3813-9" class=""/>
    <g aria-label="C" inkscape:transform-center-y="0.5589789" style="font-style:normal;font-variant:normal;font-weight:bold;font-stretch:normal;font-size:21.16666794px;line-height:1.25;font-family:Calibri;-inkscape-font-specification:'Calibri Bold';letter-spacing:0px;word-spacing:0px;fill:#ffffff;fill-opacity:1;stroke:none;stroke-width:0.26458332" id="text3813-9-8" class=""/>
    <g aria-label="Squad Health Care" style="font-style:normal;font-variant:normal;font-weight:bold;font-stretch:normal;font-size:21.16666794px;line-height:1.25;font-family:Calibri;-inkscape-font-specification:'Calibri Bold';letter-spacing:0px;word-spacing:0px;fill:#000000;fill-opacity:1;stroke:none;stroke-width:0.26458332" id="text4755" class=""/>
    <g aria-label="Network Engineering" style="font-style:normal;font-variant:normal;font-weight:bold;font-stretch:normal;font-size:9.3249855px;line-height:1.25;font-family:Calibri;-inkscape-font-specification:'Calibri Bold';letter-spacing:0px;word-spacing:0px;fill:#000000;fill-opacity:1;stroke:none;stroke-width:0.23312464" id="text4765" class=""/>
    <g aria-label="S" inkscape:transform-center-y="0.5589789" style="font-style:normal;font-variant:normal;font-weight:bold;font-stretch:normal;font-size:28.22222137px;line-height:1.25;font-family:Calibri;-inkscape-font-specification:'Calibri Bold';letter-spacing:0px;word-spacing:0px;fill:#ffffff;fill-opacity:1;stroke:none;stroke-width:0.26458332" id="text3813-5" class=""/>
    <g aria-label="H" inkscape:transform-center-y="0.5589789" style="font-style:normal;font-variant:normal;font-weight:bold;font-stretch:normal;font-size:24.69444656px;line-height:1.25;font-family:Calibri;-inkscape-font-specification:'Calibri Bold';letter-spacing:0px;word-spacing:0px;fill:#ffffff;fill-opacity:1;stroke:none;stroke-width:0.26458332" id="text3813-9-0" class=""/>
    <g aria-label="C" inkscape:transform-center-y="0.5589789" style="font-style:normal;font-variant:normal;font-weight:bold;font-stretch:normal;font-size:21.16666794px;line-height:1.25;font-family:Calibri;-inkscape-font-specification:'Calibri Bold';letter-spacing:0px;word-spacing:0px;fill:#ffffff;fill-opacity:1;stroke:none;stroke-width:0.26458332" id="text3813-9-8-7" class=""/>
    
    <g aria-label="S" inkscape:transform-center-y="0.5589789" style="font-style:normal;font-variant:normal;font-weight:bold;font-stretch:normal;font-size:28.22222137px;line-height:1.25;font-family:Calibri;-inkscape-font-specification:'Calibri Bold';letter-spacing:0px;word-spacing:0px;fill:#ffffff;fill-opacity:1;stroke:none;stroke-width:0.26458332" id="text3813-3" class=""/>
    <g aria-label="H" inkscape:transform-center-y="0.5589789" style="font-style:normal;font-variant:normal;font-weight:bold;font-stretch:normal;font-size:24.69444656px;line-height:1.25;font-family:Calibri;-inkscape-font-specification:'Calibri Bold';letter-spacing:0px;word-spacing:0px;fill:#ffffff;fill-opacity:1;stroke:none;stroke-width:0.26458332" id="text3813-9-4" class=""/>
    <g aria-label="C" inkscape:transform-center-y="0.5589789" style="font-style:normal;font-variant:normal;font-weight:bold;font-stretch:normal;font-size:21.16666794px;line-height:1.25;font-family:Calibri;-inkscape-font-specification:'Calibri Bold';letter-spacing:0px;word-spacing:0px;fill:#ffffff;fill-opacity:1;stroke:none;stroke-width:0.26458332" id="text3813-9-8-71" class=""/>
    <g aria-label="Squad Health Care" style="font-style:normal;font-variant:normal;font-weight:bold;font-stretch:normal;font-size:21.16666794px;line-height:1.25;font-family:Calibri;-inkscape-font-specification:'Calibri Bold';letter-spacing:0px;word-spacing:0px;fill:#000000;fill-opacity:1;stroke:none;stroke-width:0.26458332" id="text4755-4" class=""/>
    
    <path style="fill:#ffffff;stroke-width:0.26458332" d="m25.598694218749984,3.830181498107912 c-11.04569,0 -19.99981,8.954642 -19.99981,20.000329 c0,11.04569 8.95412,19.99982 19.99981,19.99982 c7.62018,-0.000009999999999999999 14.24389,-4.26229 17.62012,-10.532181 l3.0887000000000002,1.5446110000000002 a17.499998,17.499998 0 0 0 -1.23766,6.45025 a17.499998,17.499998 0 0 0 2.72595,9.34155 l-2.87787,2.30167 c-2.73757,-2.93039 -6.63397,-4.76457 -10.96058,-4.76457 c-8.28426,0 -15.00011,6.71585 -15.00011,15.00012 c0.000009999999999999999,8.28427 6.71585,15.00012 15.00011,15.00012 c4.91482,0 9.27749,-2.3639900000000003 12.01323,-6.01669 l5.77639,2.6262 c0.05750000000000001,1.6994600000000002 0.4439200000000001,2.81205 1.60558,4.6860100000000005 c1.07809,1.7391100000000002 4.02694,4.71675 6.43269,6.49573 c1.47153,1.08811 1.89856,1.32365 2.15387,1.1870100000000001 c1.64934,-0.8827000000000002 5.79359,-4.56689 7.2254000000000005,-6.42338 c0.021400000000000006,-0.027700000000000006 0.039900000000000005,-0.05550000000000001 0.06100000000000001,-0.08320000000000002 h66.33135 a1.250125,1.250125 0 0 0 1.22059,-0.9782299999999999 l4.09381,-18.42575 l6.6972700000000005,29.017346 a1.250125,1.250125 0 0 0 2.4298200000000003,0.023300000000000008 l4.07986,-16.316316 l1.43195,5.73247 a1.2503418,1.2503418 0 1 0 2.42569,-0.6072000000000001 l-2.6448,-10.5823 a1.250125,1.250125 0 0 0 -2.42569,0 l-4.03128,16.11943 l-6.76754,-29.32637 a1.250125,1.250125 0 0 0 -1.1637600000000001,-0.9689400000000001 a1.250125,1.250125 0 0 0 -1.2738200000000002,0.97875 l-5.07411,22.83376 h-63.78835 c1.35731,-2.84435 1.30109,-5.5468 -0.29146000000000005,-7.2745 c-1.96393,-2.13061 -5.30187,-1.99481 -7.3644,0.29921000000000003 c-0.41547000000000006,0.46211 -0.89446,1.13251 -1.06402,1.48983 l-0.30800000000000005,0.6495700000000001 l-0.5038400000000001,-0.8821200000000001 c-0.27714,-0.48524 -0.91206,-1.24919 -1.41076,-1.6975700000000002 c-1.15645,-1.03976 -2.33407,-1.4504000000000001 -3.81941,-1.33119 c-1.7421900000000001,0.13987 -2.98062,0.95941 -3.8008,2.5151 c-0.05070000000000001,0.09630000000000002 -0.09570000000000004,0.18511000000000002 -0.13643000000000002,0.26975 l-4.76405,-2.16576 c1.05468,-2.05253 1.6536400000000002,-4.3776 1.6536600000000001,-6.84403 c0,-3.0584 -0.91716,-5.90153 -2.48875,-8.27339 l2.80138,-2.24121 a17.499998,17.499998 0 0 0 13.29996,6.13554 A17.499998,17.499998 0 0 0 80.06982421875,41.29306049810791 A17.499998,17.499998 0 0 0 62.56958421874998,23.79283149810791 A17.499998,17.499998 0 0 0 47.40772421874999,32.59798049810791 l-3.1476,-1.5735510000000001 c0.86148,-2.233024 1.33892,-4.657076 1.33892,-7.193874 c0,-11.045695 -8.95464,-20.000337 -20.00033,-20.000337 zm111.31,3.590478 c-0.25494,0 -0.46509,0.010340000000000002 -0.6304500000000001,0.031010000000000006 c-0.16536000000000003,0.020670000000000004 -0.29972000000000004,0.05168000000000001 -0.40308000000000005,0.09302000000000003 c-0.09650000000000003,0.034440000000000005 -0.16536000000000003,0.07922000000000003 -0.20670000000000002,0.134358 c-0.03450000000000001,0.05512000000000001 -0.05170000000000001,0.11713600000000003 -0.05170000000000001,0.18603600000000003 v4.991943 c-0.41341000000000006,-0.406527 -0.8302700000000001,-0.713134 -1.25057,-0.9198410000000001 c-0.42030000000000006,-0.21359300000000003 -0.8888300000000001,-0.32039300000000004 -1.4056,-0.32039300000000004 c-0.6545700000000001,0 -1.23334,0.12402300000000002 -1.73632,0.37207000000000007 c-0.50299,0.24804700000000005 -0.92329,0.6028880000000001 -1.26091,1.064534 c-0.3376200000000001,0.46164 -0.5960000000000001,1.01975 -0.77515,1.674317 c-0.17225000000000001,0.654566 -0.25838000000000005,1.3918180000000002 -0.25838000000000005,2.211751 c0,0.6821330000000001 0.06890000000000002,1.333256 0.20671000000000003,1.953369 c0.1378,0.6132270000000001 0.35829,1.150658 0.66146,1.612305 c0.31005000000000005,0.46163899999999997 0.7062400000000001,0.8302700000000001 1.18855,1.105876 c0.48921000000000003,0.268718 1.08521,0.403077 1.7880099999999999,0.403077 c0.6339000000000001,0 1.20923,-0.14124800000000004 1.7259900000000001,-0.423749 c0.52366,-0.282493 1.02319,-0.6786780000000002 1.49862,-1.188557 v1.023192 c0,0.07578000000000001 0.017200000000000003,0.14123700000000003 0.05170000000000001,0.19637100000000002 c0.04130000000000001,0.04821000000000001 0.10336000000000001,0.08956000000000003 0.18604000000000004,0.12402400000000002 c0.08960000000000003,0.03447000000000001 0.20326000000000002,0.05855000000000001 0.3410600000000001,0.07235 c0.13781000000000002,0.013800000000000003 0.31695000000000007,0.020670000000000004 0.53744,0.020670000000000004 c0.20671000000000003,0 0.3789600000000001,-0.0069000000000000025 0.51676,-0.020670000000000004 c0.14470000000000002,-0.013800000000000003 0.25838000000000005,-0.037880000000000004 0.3410700000000001,-0.07235 c0.08270000000000002,-0.03441000000000001 0.14124000000000003,-0.07575000000000001 0.17570000000000002,-0.12402400000000002 c0.03440000000000001,-0.05512000000000001 0.05170000000000001,-0.12057600000000002 0.05170000000000001,-0.19637100000000002 v-13.5599 c0,-0.06889000000000002 -0.020700000000000003,-0.13090200000000002 -0.06200000000000001,-0.18603600000000003 c-0.04130000000000001,-0.05511000000000001 -0.11024000000000002,-0.09989000000000003 -0.20670000000000002,-0.134358 c-0.09650000000000003,-0.04133000000000001 -0.22738000000000003,-0.07235 -0.39274000000000003,-0.09302000000000003 c-0.16537000000000002,-0.020670000000000004 -0.3755200000000001,-0.031010000000000006 -0.63046,-0.031010000000000006 zm-46.59147,0.7441410000000002 c-0.6132200000000001,0 -1.19543,0.07923000000000002 -1.74666,0.23771100000000003 c-0.54433,0.15847400000000003 -1.01975,0.399631 -1.4262700000000001,0.7234710000000001 c-0.3996200000000001,0.31694600000000006 -0.7200300000000001,0.720022 -0.96118,1.209228 c-0.23427,0.48231300000000005 -0.35139000000000004,1.043865 -0.35139000000000004,1.6846520000000003 c0,0.558106 0.08270000000000002,1.036978 0.24803000000000003,1.4366050000000001 c0.16537000000000002,0.399633 0.3789600000000001,0.747584 0.6407900000000002,1.043863 c0.26872999999999997,0.28938700000000006 0.5719000000000001,0.540883 0.9095099999999999,0.754476 c0.33763000000000004,0.20670700000000003 0.6855700000000001,0.392739 1.04386,0.558106 c0.35830000000000006,0.16536000000000003 0.70625,0.32383600000000007 1.04387,0.47542300000000004 c0.3376100000000001,0.14469300000000002 0.6373400000000001,0.30317000000000005 0.8991700000000001,0.47542300000000004 c0.26871,0.16536700000000004 0.48576,0.358289 0.6511200000000001,0.5787760000000001 c0.16536000000000003,0.21359400000000003 0.24805000000000002,0.47197300000000003 0.24805000000000002,0.775147 c0,0.26182600000000006 -0.04820000000000001,0.499541 -0.14470000000000002,0.7131350000000001 c-0.09650000000000003,0.21359900000000004 -0.23771000000000003,0.392741 -0.42373,0.537434 c-0.17916,0.14469400000000002 -0.39965000000000006,0.25838500000000003 -0.6614700000000001,0.34106500000000006 c-0.26182000000000005,0.07579000000000002 -0.5581,0.11368800000000001 -0.8888400000000002,0.11368800000000001 c-0.50297,0 -0.9474,-0.05512000000000001 -1.33325,-0.16536500000000004 c-0.3789600000000001,-0.11713300000000003 -0.7062400000000001,-0.24460500000000002 -0.98185,-0.38240500000000005 c-0.27561,-0.137807 -0.50299,-0.261831 -0.6821300000000001,-0.37207100000000004 c-0.17226000000000002,-0.11713300000000003 -0.30662000000000006,-0.17569900000000002 -0.40308000000000005,-0.17569900000000002 c-0.06890000000000002,0 -0.13091000000000003,0.020680000000000004 -0.18603000000000003,0.062010000000000016 c-0.04820000000000001,0.03445000000000001 -0.08960000000000003,0.09646000000000003 -0.12403000000000002,0.18603600000000003 c-0.027600000000000006,0.08957000000000002 -0.04820000000000001,0.20670600000000003 -0.06200000000000001,0.351399 c-0.013800000000000003,0.14470000000000002 -0.020700000000000003,0.3238420000000001 -0.020700000000000003,0.537435 c0,0.31694700000000003 0.017200000000000003,0.561546 0.05170000000000001,0.7338040000000001 c0.04130000000000001,0.16536200000000004 0.10681,0.292833 0.19638000000000003,0.3824080000000001 c0.08960000000000003,0.08957000000000002 0.23425,0.19292300000000004 0.4340800000000001,0.310057 c0.20670000000000002,0.11713400000000003 0.46164,0.230825 0.7648100000000001,0.3410640000000001 c0.30317000000000005,0.103354 0.6511100000000001,0.19292600000000004 1.04386,0.268719 c0.39963000000000004,0.07579000000000002 0.83026,0.11368900000000001 1.2919100000000001,0.11368900000000001 c0.6821200000000002,0 1.32292,-0.08957000000000002 1.9223599999999998,-0.268719 c0.59945,-0.17914700000000003 1.1231,-0.4444160000000001 1.57096,-0.795817 c0.4478700000000001,-0.358285 0.8027200000000001,-0.8027050000000001 1.06455,-1.333252 c0.26182000000000005,-0.53054 0.39273,-1.147216 0.39273,-1.850016 c0,-0.53744 -0.08270000000000002,-1.002524 -0.24804000000000004,-1.395264 c-0.16536000000000003,-0.3996260000000001 -0.3824100000000001,-0.7441350000000001 -0.6511300000000001,-1.033528 c-0.26871,-0.29627400000000004 -0.57532,-0.5477700000000001 -0.9198400000000001,-0.754476 c-0.3445000000000001,-0.2136 -0.6959100000000001,-0.403081 -1.0542,-0.5684410000000001 c-0.35828000000000004,-0.16536700000000004 -0.7096900000000002,-0.32039400000000007 -1.05419,-0.46508800000000006 c-0.3445200000000001,-0.15158700000000003 -0.65458,-0.31006300000000003 -0.9301900000000001,-0.47542300000000004 c-0.2687,-0.17226000000000002 -0.48574,-0.36518300000000004 -0.6511100000000001,-0.5787760000000001 c-0.15847000000000003,-0.22048700000000004 -0.23771000000000003,-0.47886700000000004 -0.23771000000000003,-0.775146 c0,-0.19981400000000005 0.03440000000000001,-0.389295 0.10334,-0.5684410000000001 c0.0758,-0.17914000000000002 0.18604000000000004,-0.3307260000000001 0.33073,-0.45475299999999996 c0.15159000000000003,-0.13091300000000003 0.33763000000000004,-0.230823 0.5581200000000001,-0.299723 c0.22048000000000004,-0.07579000000000002 0.47885000000000005,-0.11368800000000001 0.77514,-0.11368800000000001 c0.3789600000000001,0 0.7269100000000001,0.04823000000000001 1.04387,0.14469400000000002 c0.31694000000000006,0.08957000000000002 0.5959900000000001,0.19292500000000004 0.8371500000000001,0.31005800000000006 c0.24116,0.11024700000000001 0.4444100000000001,0.21359900000000004 0.6097900000000002,0.31005900000000003 c0.16536000000000003,0.09646000000000003 0.28593,0.14469400000000002 0.36172000000000004,0.14469400000000002 c0.0758,0 0.13436,-0.020680000000000004 0.17571000000000003,-0.062010000000000016 c0.04820000000000001,-0.04134000000000001 0.08270000000000002,-0.10679700000000002 0.10334,-0.19637000000000002 c0.027600000000000006,-0.08957000000000002 0.04480000000000001,-0.20326500000000003 0.05170000000000001,-0.34106500000000006 c0.013800000000000003,-0.137806 0.020700000000000003,-0.306615 0.020700000000000003,-0.506429 c0,-0.17914600000000003 -0.003000000000000001,-0.3272840000000001 -0.010300000000000002,-0.44441700000000006 c-0.007000000000000002,-0.12402000000000002 -0.020700000000000003,-0.22393000000000005 -0.04130000000000001,-0.299723 c-0.013800000000000003,-0.08271000000000002 -0.03450000000000001,-0.148171 -0.06200000000000001,-0.19637100000000002 c-0.020700000000000003,-0.04823000000000001 -0.06540000000000001,-0.1068 -0.13435,-0.17570000000000002 c-0.06890000000000002,-0.06891000000000001 -0.21015,-0.15503500000000003 -0.42374,-0.25838200000000006 c-0.21361000000000002,-0.103353 -0.4582,-0.19636600000000004 -0.7338200000000001,-0.279053 c-0.2756,-0.08265000000000002 -0.5718700000000001,-0.148103 -0.8888200000000002,-0.19637000000000002 c-0.31695000000000007,-0.04827000000000001 -0.6339100000000001,-0.07235 -0.95086,-0.07235 zm9.48779,3.451986 c-0.6614500000000001,0 -1.24367,0.12402300000000002 -1.74666,0.37207000000000007 c-0.50298,0.24804700000000005 -0.9267200000000001,0.6028880000000001 -1.27124,1.064534 c-0.3445000000000001,0.46164 -0.6063400000000001,1.01975 -0.78548,1.674317 c-0.17914000000000002,0.654566 -0.26872,1.3918180000000002 -0.26872,2.211751 c0,0.6821330000000001 0.06890000000000002,1.333256 0.20671000000000003,1.953369 c0.1378,0.6132270000000001 0.35485000000000005,1.150658 0.6511300000000001,1.612305 c0.30317000000000005,0.46163899999999997 0.6924700000000001,0.8302700000000001 1.16788,1.105876 c0.47542000000000006,0.268718 1.05076,0.403077 1.726,0.403077 c0.2756,0 0.53743,-0.024080000000000004 0.78547,-0.07235 c0.24805000000000002,-0.04823000000000001 0.48921000000000003,-0.12402400000000002 0.7234700000000001,-0.22737800000000002 c0.23427,-0.11024700000000001 0.46854,-0.24804400000000004 0.70281,-0.41341100000000003 c0.23427,-0.17225200000000002 0.47541000000000005,-0.37207300000000004 0.72346,-0.599446 v4.382162 c0,0.06889000000000002 0.017200000000000003,0.13090200000000002 0.05170000000000001,0.18603300000000003 c0.04130000000000001,0.05511000000000001 0.11025000000000001,0.09989000000000003 0.20672000000000001,0.134361 c0.10334,0.04133000000000001 0.23771000000000003,0.07235 0.40306000000000003,0.09302000000000003 c0.16537000000000002,0.020670000000000004 0.37553000000000003,0.031010000000000006 0.63046,0.031010000000000006 c0.25494,0 0.46509,-0.010340000000000002 0.63046,-0.031010000000000006 c0.16536000000000003,-0.020670000000000004 0.29627000000000003,-0.05168000000000001 0.39274000000000003,-0.09302000000000003 c0.09650000000000003,-0.034440000000000005 0.16536000000000003,-0.07923000000000002 0.20670000000000002,-0.134361 c0.04130000000000001,-0.05512000000000001 0.06200000000000001,-0.11713300000000003 0.06200000000000001,-0.18603300000000003 V12.205897498107909 c0,-0.06887000000000001 -0.017200000000000003,-0.12743300000000002 -0.05170000000000001,-0.17570000000000002 c-0.03440000000000001,-0.05511000000000001 -0.09300000000000003,-0.09989000000000003 -0.17571000000000003,-0.134359 c-0.08270000000000002,-0.03440000000000001 -0.19636000000000003,-0.05855000000000001 -0.3410600000000001,-0.07235 c-0.1378,-0.020670000000000004 -0.31005000000000005,-0.031010000000000006 -0.51676,-0.031010000000000006 c-0.22050000000000003,0 -0.39963000000000004,0.010340000000000002 -0.53744,0.031010000000000006 c-0.13781000000000002,0.013730000000000004 -0.25149,0.037880000000000004 -0.3410600000000001,0.07235 c-0.08270000000000002,0.034440000000000005 -0.14470000000000002,0.07923000000000002 -0.18603000000000003,0.134359 c-0.03450000000000001,0.04823000000000001 -0.05170000000000001,0.1068 -0.05170000000000001,0.17570000000000002 v1.002523 c-0.30318000000000006,-0.29627400000000004 -0.58223,-0.544321 -0.8371700000000001,-0.7441410000000002 c-0.24804000000000004,-0.20670000000000002 -0.4892,-0.37206700000000004 -0.7234700000000001,-0.49609400000000003 c-0.23427,-0.13088 -0.46853,-0.22045000000000003 -0.7028000000000001,-0.268717 c-0.23427,-0.05513000000000001 -0.4788700000000001,-0.08268000000000002 -0.7338000000000001,-0.08268000000000002 zm22.97535,0 c-0.40652000000000005,0 -0.80271,0.03445000000000001 -1.18856,0.103353 c-0.3789600000000001,0.062010000000000016 -0.73036,0.14469300000000002 -1.0542,0.24804600000000004 c-0.3238400000000001,0.103354 -0.6063400000000001,0.21704500000000004 -0.8474900000000001,0.34106500000000006 c-0.24116,0.11713300000000003 -0.40997000000000006,0.22737600000000002 -0.5064299999999999,0.33072900000000005 c-0.09650000000000003,0.09647000000000003 -0.16192000000000004,0.20670900000000003 -0.19637000000000002,0.33072900000000005 c-0.03450000000000001,0.12402700000000001 -0.05170000000000001,0.29283600000000004 -0.05170000000000001,0.506429 c0,0.15847300000000003 0.010300000000000002,0.303169 0.031000000000000007,0.4340820000000001 c0.020700000000000003,0.13091300000000003 0.04820000000000001,0.241156 0.08270000000000002,0.33072900000000005 c0.04130000000000001,0.08954000000000002 0.08960000000000003,0.15843900000000005 0.14469,0.20670600000000003 c0.06200000000000001,0.04827000000000001 0.13092,0.07235 0.20671000000000003,0.07235 c0.11024000000000002,0 0.25149,-0.04823000000000001 0.42374,-0.14469400000000002 c0.17915,-0.09646000000000003 0.39964000000000005,-0.20326000000000002 0.66146,-0.32039400000000007 c0.26183,-0.11713300000000003 0.56155,-0.22392700000000004 0.8991700000000001,-0.32039400000000007 c0.3445100000000001,-0.09646000000000003 0.7338100000000001,-0.14469400000000002 1.16789,-0.14469400000000002 c0.33073,0 0.6063400000000001,0.03445000000000001 0.8268200000000001,0.103353 c0.22738000000000003,0.06891000000000001 0.40652000000000005,0.17570100000000002 0.53744,0.32039400000000007 c0.1378,0.14469300000000002 0.23426000000000002,0.3272840000000001 0.28939000000000004,0.5477700000000001 c0.06200000000000001,0.21359300000000003 0.09300000000000003,0.46508900000000003 0.09300000000000003,0.754476 v0.558106 h-0.8991700000000001 c-0.81993,0 -1.5399500000000002,0.062010000000000016 -2.16007,0.18603500000000003 c-0.6201200000000001,0.12402600000000003 -1.14033,0.31694900000000004 -1.5606300000000002,0.5787760000000001 c-0.41341000000000006,0.25494 -0.7269200000000001,0.5822250000000001 -0.94051,0.981852 c-0.20671000000000003,0.39274000000000003 -0.31006000000000006,0.8578240000000001 -0.31006000000000006,1.395264 c0,0.496093 0.08270000000000002,0.9301790000000001 0.24805000000000002,1.302246 c0.16536000000000003,0.37207400000000007 0.3961800000000001,0.6855780000000001 0.6924600000000001,0.94051 c0.30317000000000005,0.24804700000000005 0.6580100000000001,0.4340800000000001 1.06454,0.558106 c0.41341000000000006,0.13091400000000003 0.8647200000000002,0.19637200000000002 1.35392,0.19637200000000002 c0.59256,0 1.12999,-0.11369200000000003 1.6123,-0.34106700000000006 c0.48921000000000003,-0.22737800000000002 0.92329,-0.5443250000000001 1.30225,-0.9508460000000001 v0.7338060000000001 c0,0.09645000000000002 0.027600000000000006,0.17224400000000004 0.08270000000000002,0.22737700000000002 c0.06200000000000001,0.05513000000000001 0.16192000000000004,0.09302000000000003 0.29973,0.11368700000000001 c0.14469,0.027540000000000005 0.37206000000000006,0.04134000000000001 0.6821200000000002,0.04134000000000001 c0.28939000000000004,0 0.5064299999999999,-0.013810000000000003 0.6511300000000001,-0.04134000000000001 c0.15158000000000002,-0.020660000000000005 0.26182000000000005,-0.05855000000000001 0.33073,-0.11368700000000001 c0.06890000000000002,-0.05512000000000001 0.10335,-0.13091000000000003 0.10335,-0.22737700000000002 v-6.201172 c0,-0.6338930000000002 -0.0758,-1.181663 -0.22738000000000003,-1.64331 c-0.15158000000000002,-0.46164 -0.39274000000000003,-0.837153 -0.7234700000000001,-1.126546 c-0.33073,-0.29627400000000004 -0.7544700000000001,-0.5133169999999999 -1.27124,-0.6511230000000001 c-0.50987,-0.14469400000000002 -1.12654,-0.21704100000000004 -1.8500100000000002,-0.21704100000000004 zm-13.9113,0.17569900000000002 c-0.24805000000000002,0 -0.4582,0.010340000000000002 -0.6304500000000001,0.031010000000000006 c-0.16537000000000002,0.013730000000000004 -0.29972000000000004,0.037880000000000004 -0.40308000000000005,0.07235 c-0.09650000000000003,0.034440000000000005 -0.16536000000000003,0.07923000000000002 -0.20670000000000002,0.134359 c-0.03450000000000001,0.04823000000000001 -0.05170000000000001,0.1068 -0.05170000000000001,0.17570000000000002 v5.643066 c0,0.7028000000000001 0.05510000000000001,1.291914 0.16536000000000003,1.767334 c0.11714000000000002,0.468534 0.30662000000000006,0.8819410000000002 0.56845,1.240235 c0.26871,0.35828600000000005 0.6166700000000002,0.6407870000000001 1.04386,0.847493 c0.4340800000000001,0.20670800000000003 0.9680700000000001,0.31006000000000006 1.6019700000000001,0.31006000000000006 c0.5650000000000001,0 1.10932,-0.137806 1.6329700000000003,-0.41341200000000006 c0.53055,-0.275608 1.05076,-0.6890150000000002 1.5606300000000002,-1.240235 v1.064533 c0,0.06889000000000002 0.017200000000000003,0.13090300000000002 0.05170000000000001,0.18603700000000004 c0.03450000000000001,0.048220000000000006 0.09300000000000003,0.08956000000000003 0.17570000000000002,0.12402300000000002 c0.08270000000000002,0.03440000000000001 0.19292000000000004,0.05855000000000001 0.33073,0.07235 c0.14469,0.020670000000000004 0.33073,0.031000000000000007 0.5581,0.031000000000000007 c0.2136,0 0.3893000000000001,-0.010340000000000002 0.5271,-0.031000000000000007 c0.14470000000000002,-0.013740000000000004 0.25839,-0.037880000000000004 0.3410700000000001,-0.07235 c0.08960000000000003,-0.034420000000000006 0.15158000000000002,-0.07576000000000002 0.18603000000000003,-0.12402300000000002 c0.03450000000000001,-0.05512000000000001 0.05170000000000001,-0.11713700000000002 0.05170000000000001,-0.18603700000000004 v-9.219074 c0,-0.06887000000000001 -0.020700000000000003,-0.12743300000000002 -0.06200000000000001,-0.17570000000000002 c-0.04130000000000001,-0.05511000000000001 -0.11024000000000002,-0.09989000000000003 -0.20671000000000003,-0.134359 c-0.09650000000000003,-0.03440000000000001 -0.22737000000000002,-0.05855000000000001 -0.39274000000000003,-0.07235 c-0.16536000000000003,-0.020670000000000004 -0.37551000000000007,-0.031010000000000006 -0.6304500000000001,-0.031010000000000006 c-0.25494,0 -0.46509,0.010340000000000002 -0.63046,0.031010000000000006 c-0.16536000000000003,0.013730000000000004 -0.29972000000000004,0.037880000000000004 -0.40307000000000004,0.07235 c-0.09650000000000003,0.034440000000000005 -0.16537000000000002,0.07923000000000002 -0.20670000000000002,0.134359 c-0.03450000000000001,0.04823000000000001 -0.05170000000000001,0.1068 -0.05170000000000001,0.17570000000000002 v6.128825 c-0.3789600000000001,0.46164 -0.7372500000000001,0.8130390000000001 -1.07487,1.054199 c-0.33073,0.241153 -0.66146,0.361735 -0.99219,0.361735 c-0.26183,0 -0.49265000000000003,-0.04823000000000001 -0.6924600000000001,-0.14469400000000002 c-0.19293000000000005,-0.103353 -0.35485000000000005,-0.2446 -0.48576,-0.423747 c-0.12403000000000002,-0.18603300000000003 -0.21704000000000004,-0.40651800000000005 -0.27906000000000003,-0.6614580000000001 c-0.06200000000000001,-0.254934 -0.09300000000000003,-0.623562 -0.09300000000000003,-1.105876 v-5.208984 c0,-0.06887000000000001 -0.020700000000000003,-0.12743300000000002 -0.06200000000000001,-0.17570000000000002 c-0.04130000000000001,-0.05511000000000001 -0.11368000000000002,-0.09989000000000003 -0.21704000000000004,-0.134359 c-0.09650000000000003,-0.03440000000000001 -0.22737000000000002,-0.05855000000000001 -0.39274000000000003,-0.07235 c-0.16536000000000003,-0.020670000000000004 -0.37551000000000007,-0.031010000000000006 -0.6304500000000001,-0.031010000000000006 zm-8.58862,2.025717 c0.3720800000000001,0 0.7269200000000001,0.12402300000000002 1.06453,0.37207000000000007 c0.3445100000000001,0.24804700000000005 0.7028000000000001,0.606336 1.07487,1.07487 v3.059244 c-0.22048000000000004,0.275607 -0.42374,0.509873 -0.6097800000000001,0.7028000000000001 c-0.18603000000000003,0.18603300000000003 -0.36862000000000006,0.33761900000000006 -0.5477700000000001,0.454752 c-0.17225000000000001,0.11712700000000002 -0.3445100000000001,0.20324900000000004 -0.51676,0.25838300000000003 c-0.16537000000000002,0.04820000000000001 -0.3376100000000001,0.07235 -0.5167700000000001,0.07235 c-0.35828000000000004,0 -0.65456,-0.08613000000000003 -0.8888200000000002,-0.25838200000000006 c-0.23427,-0.17225400000000002 -0.42376,-0.39962900000000007 -0.56845,-0.6821290000000002 c-0.13781000000000002,-0.282494 -0.23771000000000003,-0.606337 -0.29973,-0.9715169999999999 c-0.06200000000000001,-0.37207400000000007 -0.09300000000000003,-0.7510290000000002 -0.09300000000000003,-1.136882 c0,-0.36518000000000006 0.03440000000000001,-0.7200280000000001 0.10335,-1.064534 c0.0758,-0.35140000000000005 0.18603000000000003,-0.6683470000000001 0.33073,-0.9508470000000001 c0.15158000000000002,-0.282493 0.3479500000000001,-0.5064259999999999 0.58911,-0.6717930000000002 c0.24804000000000004,-0.17225300000000002 0.54088,-0.25838200000000006 0.8785000000000001,-0.25838200000000006 zm33.19694,0 c0.37207000000000007,0 0.7269100000000001,0.12402300000000002 1.06453,0.37207000000000007 c0.3445100000000001,0.24804700000000005 0.7028000000000001,0.606336 1.07487,1.07487 v3.059244 c-0.22048000000000004,0.275607 -0.42374,0.509873 -0.6097800000000001,0.7028000000000001 c-0.18604000000000004,0.18603300000000003 -0.36862000000000006,0.33761900000000006 -0.5477700000000001,0.454752 c-0.17226000000000002,0.11712700000000002 -0.3445100000000001,0.20324900000000004 -0.51676,0.25838300000000003 c-0.16537000000000002,0.04820000000000001 -0.33763000000000004,0.07235 -0.5167700000000001,0.07235 c-0.35829,0 -0.6545700000000001,-0.08613000000000003 -0.8888300000000001,-0.25838200000000006 c-0.23427,-0.17225400000000002 -0.42375,-0.39962900000000007 -0.5684400000000001,-0.6821290000000002 c-0.13781000000000002,-0.28938700000000006 -0.23771000000000003,-0.6166730000000001 -0.29973,-0.981853 c-0.06200000000000001,-0.36517900000000003 -0.09300000000000003,-0.7406930000000002 -0.09300000000000003,-1.126546 c0,-0.36518000000000006 0.03450000000000001,-0.7200280000000001 0.10336000000000001,-1.064534 c0.0758,-0.35140000000000005 0.18603000000000003,-0.6683470000000001 0.33073,-0.9508470000000001 c0.15158000000000002,-0.282493 0.3479500000000001,-0.5064259999999999 0.58911,-0.6717930000000002 c0.24804000000000004,-0.17225300000000002 0.54088,-0.25838200000000006 0.8785000000000001,-0.25838200000000006 zM25.783704218750017,14.141696498107912 c0.42258000000000007,0 0.8450200000000001,0.03230000000000001 1.26762,0.09663000000000004 c0.42260000000000003,0.06433000000000001 0.81798,0.15178600000000003 1.1854500000000001,0.261999 c0.3674800000000001,0.11024700000000001 0.6934600000000001,0.234271 0.97824,0.37207100000000004 c0.28479,0.137806 0.47295000000000004,0.25229799999999997 0.5648200000000001,0.34416500000000005 c0.09190000000000002,0.09187000000000002 0.15177000000000002,0.170304 0.17932,0.23461100000000001 c0.0367,0.06433000000000001 0.06430000000000001,0.15126300000000004 0.08270000000000002,0.261483 c0.027500000000000007,0.101053 0.046100000000000016,0.234609 0.05530000000000001,0.3999750000000001 c0.009000000000000003,0.156174 0.013400000000000002,0.35335200000000005 0.013400000000000002,0.592212 c0,0.266427 -0.009000000000000003,0.49167800000000006 -0.027400000000000008,0.6754110000000001 c-0.009000000000000003,0.18374000000000004 -0.03200000000000001,0.3353190000000001 -0.06870000000000002,0.45475299999999996 c-0.027500000000000007,0.11942600000000003 -0.07360000000000001,0.206879 -0.13797,0.261999 c-0.05510000000000001,0.05513000000000001 -0.13305,0.08268000000000002 -0.2341,0.08268000000000002 c-0.10105,0 -0.26217,-0.06465000000000001 -0.48265,-0.19326900000000005 c-0.22049000000000005,-0.12861999999999998 -0.49135000000000006,-0.266425 -0.8128700000000001,-0.41341200000000006 c-0.32155000000000006,-0.15618 -0.6936200000000002,-0.29398500000000005 -1.11622,-0.41341100000000003 c-0.42258000000000007,-0.12861999999999998 -0.88636,-0.19275300000000004 -1.39164,-0.19275300000000004 c-0.39504000000000006,0 -0.73955,0.05035000000000001 -1.03353,0.15141200000000005 c-0.2939800000000001,0.09187000000000002 -0.54203,0.22542200000000004 -0.7441400000000001,0.3999750000000001 c-0.19293000000000005,0.16536000000000003 -0.34026000000000006,0.36730500000000005 -0.4413200000000001,0.6061650000000001 c-0.09190000000000002,0.23886000000000002 -0.13746000000000003,0.491673 -0.13746000000000003,0.7580930000000001 c0,0.39504000000000006 0.10548,0.7395490000000001 0.31678000000000006,1.033528 c0.22047000000000003,0.284801 0.5098900000000001,0.5418700000000001 0.86816,0.771528 c0.3674800000000001,0.22048800000000005 0.7809,0.43195900000000004 1.24024,0.6340720000000001 c0.45934,0.19292600000000004 0.9278900000000001,0.39962900000000007 1.4056,0.620117 c0.47772000000000003,0.22048500000000004 0.94626,0.47278400000000004 1.4055900000000001,0.757576 c0.45935000000000004,0.275606 0.8680000000000001,0.6111000000000001 1.22629,1.006142 c0.35828000000000004,0.38583100000000004 0.6476800000000001,0.845362 0.86816,1.378209 c0.22049000000000005,0.523653 0.33073,1.143772 0.33073,1.860351 c0,0.937067 -0.17438,1.759122 -0.52348,2.466518 c-0.34909000000000007,0.7073790000000001 -0.82241,1.2999610000000001 -1.41955,1.777667 c-0.59716,0.46852600000000005 -1.2952,0.822057 -2.09445,1.060918 c-0.79926,0.23886000000000002 -1.6536600000000001,0.358635 -2.5631500000000003,0.358635 c-0.61553,0 -1.19005,-0.05088000000000001 -1.72289,-0.15192900000000004 c-0.52366,-0.101053 -0.98742,-0.22031100000000003 -1.39165,-0.358119 c-0.40422,-0.14697900000000003 -0.7439800000000001,-0.29859 -1.01957,-0.45475 c-0.26643,-0.15618100000000001 -0.45937000000000006,-0.29400000000000004 -0.5787800000000001,-0.41341200000000006 c-0.11943000000000002,-0.11943500000000003 -0.20687,-0.28956000000000004 -0.262,-0.5100480000000001 c-0.04590000000000001,-0.22967400000000002 -0.06870000000000002,-0.5556540000000001 -0.06870000000000002,-0.9782329999999999 c0,-0.28480000000000005 0.009000000000000003,-0.523833 0.027400000000000008,-0.7167540000000001 c0.018400000000000003,-0.19292600000000004 0.04600000000000001,-0.34875500000000004 0.08270000000000002,-0.46818800000000005 c0.04590000000000001,-0.11942700000000002 0.10105,-0.202112 0.16537000000000002,-0.24804700000000005 c0.07350000000000001,-0.05513000000000001 0.15617,-0.08268000000000002 0.24804000000000004,-0.08268000000000002 c0.12861999999999998,0 0.30776000000000003,0.07793000000000001 0.53744,0.23409300000000002 c0.23886000000000002,0.14699500000000004 0.5420200000000001,0.31237500000000007 0.9095,0.49609400000000003 c0.3674800000000001,0.18374200000000004 0.8042,0.35386700000000004 1.3094800000000002,0.5100480000000001 c0.51447,0.14698600000000003 1.10703,0.22014100000000003 1.77767,0.22014100000000003 c0.4409800000000001,0 0.83586,-0.05036000000000001 1.18494,-0.15141300000000005 c0.3491100000000001,-0.11022600000000003 0.64326,-0.261837 0.8821200000000001,-0.45475 c0.24805000000000002,-0.19292900000000004 0.43621000000000004,-0.43196200000000007 0.5648200000000001,-0.7167540000000001 c0.12861,-0.284792 0.19276000000000004,-0.6017390000000001 0.19276000000000004,-0.9508460000000001 c0,-0.40422800000000003 -0.11025000000000001,-0.7487370000000001 -0.33073,-1.033529 c-0.22049000000000005,-0.2939780000000001 -0.50988,-0.5510550000000001 -0.8681700000000001,-0.771527 c-0.3491000000000001,-0.22967500000000002 -0.7487300000000001,-0.441145 -1.19889,-0.6340720000000001 c-0.45016,-0.202112 -0.91393,-0.41307200000000005 -1.39165,-0.633552 c-0.4777,-0.22048800000000005 -0.94149,-0.468535 -1.39164,-0.7441410000000002 c-0.45016,-0.28480000000000005 -0.85457,-0.6202940000000001 -1.21285,-1.006142 c-0.3491000000000001,-0.39502500000000007 -0.6337200000000002,-0.8588050000000002 -0.85421,-1.391644 c-0.22049000000000005,-0.5328400000000001 -0.33073,-1.171506 -0.33073,-1.9156460000000002 c0,-0.854387 0.15584000000000003,-1.603288 0.46819,-2.246375 c0.32155000000000006,-0.652266 0.7487400000000002,-1.189704 1.28157,-1.612304 c0.54203,-0.43178700000000003 1.1759300000000001,-0.7529830000000001 1.9017,-0.964283 c0.7349500000000001,-0.21130000000000002 1.51142,-0.317293 2.32906,-0.317293 zm97.52375,3.366203 h0.99219 v1.5709629999999999 c-0.31694000000000006,0.358287 -0.6304500000000001,0.6304480000000001 -0.94051,0.816488 c-0.30316000000000004,0.18603300000000003 -0.6373400000000001,0.279053 -1.00252,0.279053 c-0.4340800000000001,0 -0.77515,-0.11024300000000002 -1.02319,-0.33072900000000005 c-0.24116,-0.22048700000000004 -0.36174,-0.523652 -0.36174,-0.9095059999999999 c0,-0.22737300000000002 0.04130000000000001,-0.427193 0.12402000000000002,-0.599446 c0.08960000000000003,-0.17914700000000003 0.22738000000000003,-0.3307260000000001 0.41342000000000007,-0.45475299999999996 c0.18603000000000003,-0.12403300000000002 0.42719,-0.21705300000000002 0.72346,-0.279053 c0.29629,-0.06200000000000001 0.6545700000000001,-0.09302000000000003 1.07487,-0.09302000000000003 zm-1.27123,16.340089 c-0.25494,0 -0.46509,0.010350000000000002 -0.63046,0.031010000000000006 c-0.16536000000000003,0.020660000000000005 -0.29972000000000004,0.05168000000000001 -0.40307000000000004,0.09302000000000003 c-0.09650000000000003,0.034440000000000005 -0.16537000000000002,0.07922000000000003 -0.20671000000000003,0.134358 c-0.04130000000000001,0.05512000000000001 -0.06200000000000001,0.11713600000000003 -0.06200000000000001,0.18603600000000003 v13.590898 c0,0.06890000000000002 0.020700000000000003,0.13090000000000002 0.06200000000000001,0.18604000000000004 c0.04130000000000001,0.04820000000000001 0.11024000000000002,0.08960000000000003 0.20671000000000003,0.12402000000000002 c0.10335,0.03450000000000001 0.23771000000000003,0.05850000000000001 0.40307000000000004,0.0724 c0.16537000000000002,0.020700000000000003 0.3755200000000001,0.031000000000000007 0.63046,0.031000000000000007 c0.25493,0 0.46508000000000005,-0.010400000000000001 0.6304500000000001,-0.031000000000000007 c0.16536000000000003,-0.013800000000000003 0.29628000000000004,-0.0379 0.39274000000000003,-0.0724 c0.10335,-0.03440000000000001 0.17570000000000002,-0.0758 0.21704000000000004,-0.12402000000000002 c0.04130000000000001,-0.05510000000000001 0.06200000000000001,-0.11713000000000003 0.06200000000000001,-0.18604000000000004 V34.29240649810791 c0,-0.06889000000000002 -0.020700000000000003,-0.13090300000000002 -0.06200000000000001,-0.18603700000000004 c-0.04130000000000001,-0.05511000000000001 -0.11369000000000003,-0.09989000000000003 -0.21704000000000004,-0.134358 c-0.09650000000000003,-0.04133000000000001 -0.22738000000000003,-0.07235 -0.39274000000000003,-0.09302000000000003 c-0.16537000000000002,-0.020660000000000005 -0.3755200000000001,-0.031010000000000006 -0.6304500000000001,-0.031010000000000006 zm12.5677,0 c-0.25493,0 -0.46508000000000005,0.010350000000000002 -0.6304500000000001,0.031010000000000006 c-0.16536000000000003,0.020660000000000005 -0.29972000000000004,0.05168000000000001 -0.40307000000000004,0.09302000000000003 c-0.09650000000000003,0.034440000000000005 -0.16537000000000002,0.07922000000000003 -0.20671000000000003,0.134358 c-0.04130000000000001,0.05512000000000001 -0.06200000000000001,0.11713600000000003 -0.06200000000000001,0.18603600000000003 v13.590898 c0,0.06890000000000002 0.020700000000000003,0.13090000000000002 0.06200000000000001,0.18604000000000004 c0.04130000000000001,0.04820000000000001 0.11024000000000002,0.08960000000000003 0.20671000000000003,0.12402000000000002 c0.10335,0.03450000000000001 0.23771000000000003,0.05850000000000001 0.40307000000000004,0.0724 c0.16537000000000002,0.020700000000000003 0.3755200000000001,0.031000000000000007 0.6304500000000001,0.031000000000000007 c0.25494,0 0.46509,-0.010400000000000001 0.63046,-0.031000000000000007 c0.16536000000000003,-0.013800000000000003 0.29627000000000003,-0.0379 0.39274000000000003,-0.0724 c0.10335,-0.03440000000000001 0.17570000000000002,-0.0758 0.21704000000000004,-0.12402000000000002 c0.04130000000000001,-0.05510000000000001 0.06200000000000001,-0.11713000000000003 0.06200000000000001,-0.18604000000000004 v-6.12882 c0.36518000000000006,-0.46165 0.71658,-0.81305 1.0542,-1.0542 c0.3376200000000001,-0.24116 0.6717900000000002,-0.36174 1.00252,-0.36174 c0.26183,0 0.48921000000000003,0.05170000000000001 0.6821300000000001,0.15503000000000003 c0.19982000000000003,0.09650000000000003 0.36174,0.23772000000000001 0.48576,0.42375 c0.12402000000000002,0.17915 0.21704000000000004,0.39619000000000004 0.27905,0.6511200000000001 c0.06890000000000002,0.25494 0.10335,0.6063400000000001 0.10335,1.0542 v5.26066 c0,0.06890000000000002 0.020700000000000003,0.13090000000000002 0.06200000000000001,0.18604000000000004 c0.04130000000000001,0.04820000000000001 0.11024000000000002,0.08960000000000003 0.20670000000000002,0.12402000000000002 c0.09650000000000003,0.03450000000000001 0.22738000000000003,0.05850000000000001 0.39274000000000003,0.0724 c0.17226000000000002,0.020700000000000003 0.3858500000000001,0.031000000000000007 0.6407900000000002,0.031000000000000007 c0.24805000000000002,0 0.45475,-0.010400000000000001 0.6201200000000001,-0.031000000000000007 c0.17225000000000001,-0.013800000000000003 0.30661000000000005,-0.0379 0.40308000000000005,-0.0724 c0.09650000000000003,-0.03440000000000001 0.16536000000000003,-0.0758 0.20670000000000002,-0.12402000000000002 c0.04130000000000001,-0.05510000000000001 0.06200000000000001,-0.11713000000000003 0.06200000000000001,-0.18604000000000004 v-5.6534 c0,-0.6821300000000001 -0.05860000000000001,-1.2609 -0.17570000000000002,-1.7363300000000002 c-0.11713000000000003,-0.48231000000000007 -0.31006000000000006,-0.90261 -0.5787700000000001,-1.2609 c-0.26183,-0.35830000000000006 -0.6097900000000002,-0.6407900000000002 -1.04387,-0.8474900000000001 c-0.42719,-0.20671000000000003 -0.9542900000000001,-0.31006000000000006 -1.5813000000000001,-0.31006000000000006 c-0.50298,0 -0.9887400000000001,0.11024000000000002 -1.45727,0.33072000000000007 c-0.46165,0.21361000000000002 -0.9164,0.54088 -1.36426,0.98186 v-5.095298 c0,-0.06889000000000002 -0.020700000000000003,-0.13090200000000002 -0.06200000000000001,-0.18603600000000003 c-0.04130000000000001,-0.05511000000000001 -0.11369000000000003,-0.09989000000000003 -0.21704000000000004,-0.134358 c-0.09650000000000003,-0.04133000000000001 -0.22738000000000003,-0.07235 -0.39274000000000003,-0.09302000000000003 c-0.16537000000000002,-0.020660000000000005 -0.3755200000000001,-0.031010000000000006 -0.63046,-0.031010000000000006 zm-76.70281,0.14779400000000004 c0.31351000000000007,0 0.57057,0.012040000000000002 0.7715299999999999,0.03617000000000001 c0.20097,0.024130000000000002 0.36208000000000007,0.056440000000000004 0.48266000000000003,0.09664000000000003 c0.12058,0.04020000000000001 0.20499000000000003,0.09227000000000003 0.25321,0.15658100000000003 c0.04830000000000001,0.06433000000000001 0.0724,0.136678 0.0724,0.21704300000000004 v5.727814 h5.83582 V34.50221649810791 c0,-0.08039000000000002 0.024100000000000003,-0.15273600000000004 0.0724,-0.21704300000000004 c0.05630000000000001,-0.06433000000000001 0.14067,-0.11640700000000001 0.25321,-0.15657800000000002 c0.12058,-0.04020000000000001 0.28119,-0.07250000000000001 0.48214,-0.09664000000000003 c0.20900000000000002,-0.024130000000000002 0.47043,-0.03617000000000001 0.7839400000000001,-0.03617000000000001 c0.30546000000000006,0 0.5586700000000001,0.012040000000000002 0.7596400000000002,0.03617000000000001 c0.20096000000000003,0.024130000000000002 0.36156000000000005,0.056440000000000004 0.48214,0.09664000000000003 c0.12056000000000001,0.04020000000000001 0.20498000000000002,0.09227000000000003 0.25322,0.15657800000000002 c0.05630000000000001,0.06433000000000001 0.08470000000000003,0.136678 0.08470000000000003,0.21704300000000004 v14.735014 c0,0.08040000000000001 -0.028500000000000004,0.15273000000000003 -0.08470000000000003,0.21704000000000004 c-0.04820000000000001,0.06430000000000001 -0.13266,0.11641000000000001 -0.25322,0.15658000000000002 c-0.12058,0.04020000000000001 -0.28118000000000004,0.07250000000000001 -0.48214,0.09660000000000003 c-0.20097,0.024100000000000003 -0.45418000000000003,0.0362 -0.7596400000000002,0.0362 c-0.31351000000000007,0 -0.5749400000000001,-0.012000000000000002 -0.7839400000000001,-0.0362 c-0.20095000000000002,-0.024100000000000003 -0.36156000000000005,-0.056400000000000006 -0.48214,-0.09660000000000003 c-0.11254000000000002,-0.04020000000000001 -0.19694000000000006,-0.09230000000000002 -0.25321,-0.15658000000000002 c-0.04820000000000001,-0.06430000000000001 -0.0724,-0.13668 -0.0724,-0.21704000000000004 v-6.30659 h-5.83582 v6.30659 c0,0.08040000000000001 -0.024100000000000003,0.15273000000000003 -0.0724,0.21704000000000004 c-0.04830000000000001,0.06430000000000001 -0.13266999999999998,0.11641000000000001 -0.25321,0.15658000000000002 c-0.12058,0.04020000000000001 -0.28169,0.07250000000000001 -0.48266000000000003,0.09660000000000003 c-0.20096000000000003,0.024100000000000003 -0.45802000000000004,0.0362 -0.7715299999999999,0.0362 c-0.30546000000000006,0 -0.56253,-0.012000000000000002 -0.7715299999999999,-0.0362 c-0.20096000000000003,-0.024100000000000003 -0.36208000000000007,-0.056400000000000006 -0.48265,-0.09660000000000003 c-0.12058,-0.04020000000000001 -0.20882,-0.09230000000000002 -0.2651,-0.15658000000000002 c-0.04820000000000001,-0.06430000000000001 -0.0724,-0.13668 -0.0724,-0.21704000000000004 V34.50221349810791 c0,-0.08039000000000002 0.024100000000000003,-0.15273600000000004 0.0724,-0.21704300000000004 c0.05630000000000001,-0.06433000000000001 0.14451000000000003,-0.11640700000000001 0.2651,-0.15657800000000002 c0.12057000000000001,-0.04020000000000001 0.28169,-0.07250000000000001 0.48265,-0.09664000000000003 c0.20900000000000002,-0.024130000000000002 0.46607000000000004,-0.03617000000000001 0.7715299999999999,-0.036180000000000004 zm29.87363,0.8030480000000001 c-0.26181000000000004,0 -0.48230000000000006,0.010300000000000002 -0.66146,0.031000000000000007 c-0.17225000000000001,0.020700000000000003 -0.31006000000000006,0.04820000000000001 -0.41341000000000006,0.08270000000000002 c-0.10334,0.03440000000000001 -0.17913,0.07920000000000002 -0.22737000000000002,0.13436 c-0.04130000000000001,0.05510000000000001 -0.06200000000000001,0.11714000000000002 -0.06200000000000001,0.18604000000000004 v12.62972 c0,0.06890000000000002 0.020700000000000003,0.13090000000000002 0.06200000000000001,0.18603000000000003 c0.04820000000000001,0.05510000000000001 0.12403000000000002,0.09990000000000003 0.22737000000000002,0.13436 c0.10335,0.03450000000000001 0.24116,0.06200000000000001 0.41341000000000006,0.08270000000000002 c0.17916,0.020700000000000003 0.39965000000000006,0.031000000000000007 0.66146,0.031000000000000007 c0.26872999999999997,0 0.48921000000000003,-0.010400000000000001 0.6614700000000001,-0.031000000000000007 c0.17224000000000003,-0.020700000000000003 0.31006000000000006,-0.04820000000000001 0.41340000000000005,-0.08270000000000002 c0.10336000000000001,-0.03440000000000001 0.17570000000000002,-0.07920000000000002 0.21704000000000004,-0.13436 c0.04130000000000001,-0.05510000000000001 0.06200000000000001,-0.11713000000000003 0.06200000000000001,-0.18603000000000003 v-5.40536 h5.00229 v5.40536 c0,0.06890000000000002 0.020700000000000003,0.13090000000000002 0.06200000000000001,0.18603000000000003 c0.04820000000000001,0.05510000000000001 0.12057000000000001,0.09990000000000003 0.21704000000000004,0.13436 c0.10336000000000001,0.03450000000000001 0.24116,0.06200000000000001 0.41341000000000006,0.08270000000000002 c0.17914000000000002,0.020700000000000003 0.40307000000000004,0.031000000000000007 0.6718000000000002,0.031000000000000007 c0.26182000000000005,0 0.47886000000000006,-0.010400000000000001 0.6511100000000001,-0.031000000000000007 c0.17226000000000002,-0.020700000000000003 0.31006000000000006,-0.04820000000000001 0.41343,-0.08270000000000002 c0.10334,-0.03440000000000001 0.17569,-0.07920000000000002 0.21703000000000003,-0.13436 c0.04820000000000001,-0.05510000000000001 0.0723,-0.11713000000000003 0.0723,-0.18603000000000003 v-12.62973 c0,-0.06890000000000002 -0.024100000000000003,-0.13090000000000002 -0.0723,-0.18603000000000003 c-0.04130000000000001,-0.05510000000000001 -0.11369000000000003,-0.09990000000000003 -0.21703000000000003,-0.13436 c-0.10337,-0.03450000000000001 -0.24117,-0.06200000000000001 -0.41343,-0.08270000000000002 c-0.17225000000000001,-0.020700000000000003 -0.38929,-0.031000000000000007 -0.6511100000000001,-0.031000000000000007 c-0.26872999999999997,0 -0.49266000000000004,0.010300000000000002 -0.6718000000000002,0.031000000000000007 c-0.17225000000000001,0.020700000000000003 -0.31005000000000005,0.04820000000000001 -0.41341000000000006,0.08270000000000002 c-0.09650000000000003,0.03440000000000001 -0.16881000000000004,0.07920000000000002 -0.21704000000000004,0.13436 c-0.04130000000000001,0.05510000000000001 -0.06200000000000001,0.11713000000000003 -0.06200000000000001,0.18603000000000003 v4.90926 h-5.00229 v-4.90926 c0,-0.06890000000000002 -0.020700000000000003,-0.13090000000000002 -0.06200000000000001,-0.18603000000000003 c-0.04130000000000001,-0.05510000000000001 -0.11368000000000002,-0.09990000000000003 -0.21704000000000004,-0.13436 c-0.10334,-0.03450000000000001 -0.24116,-0.06200000000000001 -0.41340000000000005,-0.08270000000000002 c-0.17226000000000002,-0.020700000000000003 -0.39274000000000003,-0.031000000000000007 -0.6614700000000001,-0.031000000000000007 zm39.90454,1.0232 c-0.24805000000000002,0 -0.4582,0.010400000000000001 -0.6304500000000001,0.031000000000000007 c-0.16536000000000003,0.013800000000000003 -0.29972000000000004,0.04130000000000001 -0.40308000000000005,0.08270000000000002 c-0.09650000000000003,0.03440000000000001 -0.16536000000000003,0.07920000000000002 -0.20670000000000002,0.13436 c-0.03450000000000001,0.05510000000000001 -0.05170000000000001,0.11713000000000003 -0.05170000000000001,0.18603000000000003 v2.05672 h-1.09554 c-0.06890000000000002,0 -0.13091000000000003,0.017200000000000003 -0.18603000000000003,0.05170000000000001 c-0.04820000000000001,0.03440000000000001 -0.08960000000000003,0.09300000000000003 -0.12403000000000002,0.17570000000000002 c-0.03440000000000001,0.0758 -0.06200000000000001,0.18259000000000003 -0.08270000000000002,0.3204000000000001 c-0.013800000000000003,0.1378 -0.020700000000000003,0.30661000000000005 -0.020700000000000003,0.5064299999999999 c0,0.3789600000000001 0.03440000000000001,0.6511300000000001 0.10335,0.81648 c0.06890000000000002,0.15848000000000004 0.16881000000000004,0.23772000000000001 0.29973,0.23772000000000001 h1.10587 v4.72322 c0,0.5650000000000001 0.05860000000000001,1.05421 0.17570000000000002,1.46761 c0.11713000000000003,0.41342000000000007 0.29972000000000004,0.7579200000000001 0.5477700000000001,1.03353 c0.24805000000000002,0.26872 0.56155,0.46853 0.94051,0.59945 c0.3789600000000001,0.13091000000000003 0.8268200000000001,0.19637000000000002 1.34359,0.19637000000000002 c0.19292000000000004,0 0.3824100000000001,-0.010400000000000001 0.5684400000000001,-0.031000000000000007 c0.19293000000000005,-0.020700000000000003 0.36862000000000006,-0.05170000000000001 0.5271,-0.09300000000000003 c0.16536000000000003,-0.03440000000000001 0.30661000000000005,-0.0758 0.42375,-0.12402000000000002 c0.12402000000000002,-0.05510000000000001 0.21704000000000004,-0.11370000000000002 0.27905,-0.17570000000000002 c0.06200000000000001,-0.06890000000000002 0.11024000000000002,-0.18259000000000003 0.14469,-0.3410700000000001 c0.04130000000000001,-0.16536000000000003 0.06200000000000001,-0.39963000000000004 0.06200000000000001,-0.7028000000000001 c0,-0.19292000000000004 -0.010300000000000002,-0.35139000000000004 -0.031000000000000007,-0.47542000000000006 c-0.013800000000000003,-0.12402000000000002 -0.031000000000000007,-0.22049000000000005 -0.05170000000000001,-0.28939000000000004 c-0.020700000000000003,-0.0758 -0.05170000000000001,-0.12403000000000002 -0.09300000000000003,-0.14469 c-0.03450000000000001,-0.027500000000000007 -0.0724,-0.04130000000000001 -0.11369000000000003,-0.04130000000000001 c-0.04820000000000001,0 -0.10335,0.013800000000000003 -0.16537000000000002,0.04130000000000001 c-0.05510000000000001,0.020700000000000003 -0.12747,0.04820000000000001 -0.21704000000000004,0.08270000000000002 c-0.08270000000000002,0.027600000000000006 -0.17914000000000002,0.05510000000000001 -0.28939000000000004,0.08270000000000002 c-0.11024000000000002,0.020700000000000003 -0.23426000000000002,0.031000000000000007 -0.37207000000000007,0.031000000000000007 c-0.40652000000000005,0 -0.6890200000000002,-0.12403000000000002 -0.8474900000000001,-0.37207000000000007 c-0.15847000000000003,-0.25494 -0.23771000000000003,-0.6339000000000001 -0.23771000000000003,-1.1368800000000001 v-4.33049 h2.01538 c0.13091000000000003,0 0.23082,-0.07920000000000002 0.29972000000000004,-0.23771000000000003 c0.06890000000000002,-0.16536000000000003 0.10335,-0.43753000000000003 0.10335,-0.81649 c0,-0.19982000000000003 -0.010300000000000002,-0.36863 -0.031000000000000007,-0.5064299999999999 c-0.013800000000000003,-0.1378 -0.0379,-0.2446 -0.0724,-0.32039000000000006 c-0.03440000000000001,-0.08270000000000002 -0.07920000000000002,-0.14124000000000003 -0.13436,-0.17570000000000002 c-0.04820000000000001,-0.03450000000000001 -0.10679000000000002,-0.05170000000000001 -0.17570000000000002,-0.05170000000000001 h-2.00504 v-2.05672 c0,-0.06890000000000002 -0.020700000000000003,-0.13090000000000002 -0.06200000000000001,-0.18603000000000003 c-0.04130000000000001,-0.05510000000000001 -0.11025000000000001,-0.09990000000000003 -0.20671000000000003,-0.13436 c-0.09650000000000003,-0.04130000000000001 -0.23082,-0.06890000000000002 -0.40307000000000004,-0.08270000000000002 c-0.16537000000000002,-0.020700000000000003 -0.3755200000000001,-0.031000000000000007 -0.63046,-0.031000000000000007 zm-23.90552,2.25309 c-0.73036,0 -1.38836,0.12058 -1.97404,0.36173 c-0.5787700000000001,0.24116 -1.07142,0.59256 -1.47794,1.0542 c-0.40652000000000005,0.45476 -0.71658,1.01286 -0.93018,1.6743200000000003 c-0.21359000000000003,0.6545700000000001 -0.32039000000000006,1.39182 -0.32039000000000006,2.21175 c0,0.8612700000000001 0.09990000000000003,1.61231 0.29972000000000004,2.25309 c0.20672000000000001,0.6407900000000002 0.51678,1.17134 0.93018,1.5916400000000002 c0.41342000000000007,0.4203100000000001 0.92673,0.7338000000000001 1.53996,0.94051 c0.6201200000000001,0.20670000000000002 1.34014,0.31006000000000006 2.1600800000000002,0.31006000000000006 c0.45476,0 0.8819400000000002,-0.031000000000000007 1.28157,-0.09300000000000003 c0.39963000000000004,-0.05510000000000001 0.7544700000000001,-0.12059000000000002 1.06453,-0.19637000000000002 c0.31006000000000006,-0.08270000000000002 0.5650000000000001,-0.16537000000000002 0.7648100000000001,-0.24805000000000002 c0.19982000000000003,-0.08270000000000002 0.3204000000000001,-0.14811000000000002 0.36174,-0.19637000000000002 c0.04820000000000001,-0.04830000000000001 0.08610000000000002,-0.09650000000000003 0.11368000000000002,-0.14470000000000002 c0.027600000000000006,-0.05510000000000001 0.04820000000000001,-0.12057000000000001 0.06200000000000001,-0.19636000000000003 c0.013800000000000003,-0.0758 0.024100000000000003,-0.16537000000000002 0.031000000000000007,-0.26872 c0.007000000000000002,-0.11025000000000001 0.010300000000000002,-0.24116 0.010300000000000002,-0.39274000000000003 c0,-0.17226000000000002 -0.007000000000000002,-0.31351000000000007 -0.020700000000000003,-0.42375 c-0.007000000000000002,-0.11715000000000002 -0.024100000000000003,-0.20672000000000001 -0.05170000000000001,-0.26872 c-0.027600000000000006,-0.06200000000000001 -0.06200000000000001,-0.10336000000000001 -0.10335,-0.12402000000000002 c-0.04130000000000001,-0.027500000000000007 -0.09300000000000003,-0.04130000000000001 -0.15503000000000003,-0.04130000000000001 c-0.10335,0 -0.23771000000000003,0.03450000000000001 -0.40308000000000005,0.10335 c-0.16536000000000003,0.06200000000000001 -0.37551000000000007,0.13436 -0.6304500000000001,0.21704000000000004 c-0.24805000000000002,0.0758 -0.54432,0.14814000000000002 -0.8888300000000001,0.21704000000000004 c-0.3445100000000001,0.06200000000000001 -0.7441500000000001,0.09300000000000003 -1.1989,0.09300000000000003 c-0.4478600000000001,0 -0.8337100000000001,-0.05860000000000001 -1.15755,-0.17570000000000002 c-0.31695000000000007,-0.11713000000000003 -0.5787700000000001,-0.28594 -0.78547,-0.50642 c-0.19983000000000004,-0.22738000000000003 -0.3479700000000001,-0.49954000000000004 -0.44443000000000005,-0.81649 c-0.08960000000000003,-0.3238400000000001 -0.13436,-0.6821300000000001 -0.13436,-1.07487 h5.61206 c0.24805000000000002,0 0.4409800000000001,-0.0758 0.5787800000000001,-0.22738000000000003 c0.14469,-0.15159000000000003 0.21704000000000004,-0.3858500000000001 0.21704000000000004,-0.7028000000000001 v-0.41341000000000006 c0,-0.6476800000000001 -0.08270000000000002,-1.24712 -0.24805000000000002,-1.79834 c-0.16536000000000003,-0.55122 -0.42374,-1.02664 -0.77514,-1.4262700000000001 c-0.35140000000000005,-0.40652000000000005 -0.80271,-0.7234700000000001 -1.35392,-0.9508500000000001 c-0.54433,-0.22737000000000002 -1.20234,-0.3410600000000001 -1.97405,-0.3410600000000001 zm10.28362,0 c-0.40653,0 -0.80271,0.03450000000000001 -1.18856,0.10335 c-0.3789600000000001,0.06200000000000001 -0.73036,0.14470000000000002 -1.0542,0.24805000000000002 c-0.3238400000000001,0.10334 -0.6063400000000001,0.21704000000000004 -0.8475,0.3410600000000001 c-0.24115,0.11714000000000002 -0.40996000000000005,0.22738000000000003 -0.50642,0.33073 c-0.09650000000000003,0.09650000000000003 -0.16192000000000004,0.20671000000000003 -0.19638000000000003,0.33073 c-0.03440000000000001,0.12402000000000002 -0.05170000000000001,0.29283000000000003 -0.05170000000000001,0.5064299999999999 c0,0.15847000000000003 0.010300000000000002,0.30317000000000005 0.031000000000000007,0.4340800000000001 c0.020700000000000003,0.13092 0.04820000000000001,0.24116 0.08270000000000002,0.33073 c0.04130000000000001,0.08960000000000003 0.08960000000000003,0.15851000000000004 0.14469,0.20671000000000003 c0.06200000000000001,0.04830000000000001 0.13091000000000003,0.0723 0.20671000000000003,0.0723 c0.11024000000000002,0 0.25149,-0.04820000000000001 0.42374,-0.14469 c0.17915,-0.09650000000000003 0.39963000000000004,-0.20327 0.66146,-0.3204000000000001 c0.26183,-0.11713000000000003 0.56155,-0.22393000000000005 0.8991700000000001,-0.32039000000000006 c0.3445100000000001,-0.09650000000000003 0.7338100000000001,-0.14470000000000002 1.16789,-0.14470000000000002 c0.33073,0 0.6063400000000001,0.03450000000000001 0.8268200000000001,0.10336000000000001 c0.22738000000000003,0.06890000000000002 0.40652000000000005,0.17570000000000002 0.53744,0.32039000000000006 c0.1378,0.14469 0.23426000000000002,0.32728000000000007 0.2893800000000001,0.5477700000000001 c0.06200000000000001,0.2136 0.09300000000000003,0.46509 0.09300000000000003,0.75448 v0.5581 h-0.8991700000000001 c-0.81993,0 -1.5399500000000002,0.06200000000000001 -2.16007,0.18604000000000004 c-0.6201200000000001,0.12402000000000002 -1.14033,0.31694000000000006 -1.5606300000000002,0.5787700000000001 c-0.41341000000000006,0.25494 -0.7269200000000001,0.5822200000000001 -0.94051,0.98185 c-0.20671000000000003,0.39275000000000004 -0.31006000000000006,0.8578400000000002 -0.31006000000000006,1.39527 c0,0.49609000000000003 0.08270000000000002,0.93017 0.24805000000000002,1.30225 c0.16536000000000003,0.37206000000000006 0.3961800000000001,0.6855700000000001 0.6924600000000001,0.94051 c0.30317000000000005,0.24804000000000004 0.6580100000000001,0.4340800000000001 1.06453,0.5581 c0.41342000000000007,0.13092 0.8647200000000002,0.19637000000000002 1.35393,0.19637000000000002 c0.59255,0 1.12999,-0.11369000000000003 1.6123,-0.3410600000000001 c0.4892,-0.22738000000000003 0.92329,-0.54432 1.30225,-0.9508500000000001 v0.7338100000000001 c0,0.09650000000000003 0.027600000000000006,0.17224000000000003 0.08270000000000002,0.22737000000000002 c0.06200000000000001,0.05510000000000001 0.16192000000000004,0.09300000000000003 0.29972000000000004,0.11369000000000003 c0.14470000000000002,0.027500000000000007 0.37207000000000007,0.04130000000000001 0.6821300000000001,0.04130000000000001 c0.28939000000000004,0 0.5064299999999999,-0.013800000000000003 0.6511300000000001,-0.04130000000000001 c0.15158000000000002,-0.020600000000000004 0.26182000000000005,-0.05850000000000001 0.33073,-0.11369000000000003 c0.06890000000000002,-0.05510000000000001 0.10335,-0.13091000000000003 0.10335,-0.22737000000000002 v-6.20118 c0,-0.6338900000000002 -0.0758,-1.18166 -0.22738000000000003,-1.64331 c-0.15158000000000002,-0.46164 -0.39274000000000003,-0.8371500000000001 -0.7234700000000001,-1.12654 c-0.33073,-0.29628000000000004 -0.7544700000000001,-0.51333 -1.27124,-0.6511300000000001 c-0.50987,-0.14469 -1.12655,-0.21704000000000004 -1.8500100000000002,-0.21704000000000004 zm-10.34563,1.83968 c0.65458,0 1.1368800000000001,0.21015 1.4469400000000001,0.6304500000000001 c0.31695000000000007,0.41342000000000007 0.46509,0.9853 0.4444200000000001,1.7156600000000002 h-3.88607 c0.013800000000000003,-0.3238400000000001 0.06200000000000001,-0.6270000000000001 0.14471000000000003,-0.9095099999999999 c0.08960000000000003,-0.2893800000000001 0.21359000000000003,-0.53743 0.37207000000000007,-0.7441400000000001 c0.16536000000000003,-0.21359000000000003 0.36861000000000005,-0.3824000000000001 0.6097800000000001,-0.50642 c0.24803000000000003,-0.12403000000000002 0.53743,-0.18604000000000004 0.8681500000000001,-0.18604000000000004 zm10.87273,4.05143 h0.99218 v1.57097 c-0.31695000000000007,0.35829 -0.6304500000000001,0.6304500000000001 -0.94051,0.81648 c-0.30317000000000005,0.18604000000000004 -0.6373400000000001,0.27906000000000003 -1.00252,0.27906000000000003 c-0.4340800000000001,0 -0.77515,-0.11025000000000001 -1.02319,-0.33073 c-0.24116,-0.22049000000000005 -0.36174,-0.52366 -0.36174,-0.9095099999999999 c0,-0.22738000000000003 0.04130000000000001,-0.42719 0.12402000000000002,-0.5994400000000001 c0.08960000000000003,-0.17915 0.22738000000000003,-0.33074000000000003 0.41341000000000006,-0.45476 c0.18604000000000004,-0.12403000000000002 0.4272,-0.21705000000000002 0.72348,-0.27905 c0.29627000000000003,-0.06200000000000001 0.65456,-0.09300000000000003 1.07487,-0.09300000000000003 zm-79.80804,12.20908 c0.37205000000000005,0 0.7303400000000001,0.031000000000000007 1.07486,0.09300000000000003 c0.3445000000000001,0.06200000000000001 0.66146,0.14469 0.9508400000000001,0.24804000000000004 c0.29628000000000004,0.09650000000000003 0.56155,0.21016 0.7958200000000001,0.3410700000000001 c0.23427,0.13091000000000003 0.3961800000000001,0.2446 0.48576,0.3410600000000001 c0.09650000000000003,0.08960000000000003 0.16192000000000004,0.16537000000000002 0.19638000000000003,0.22738000000000003 c0.03450000000000001,0.06200000000000001 0.06200000000000001,0.14124000000000003 0.08270000000000002,0.23771000000000003 c0.020700000000000003,0.09650000000000003 0.03450000000000001,0.21014000000000002 0.04130000000000001,0.3410700000000001 c0.013800000000000003,0.13091000000000003 0.020700000000000003,0.29283000000000003 0.020700000000000003,0.48575 c0,0.20671000000000003 -0.007000000000000002,0.3824100000000001 -0.020700000000000003,0.52711 c-0.013800000000000003,0.14469 -0.0379,0.26182000000000005 -0.0723,0.35139000000000004 c-0.03450000000000001,0.08960000000000003 -0.0758,0.15503000000000003 -0.12404000000000001,0.19637000000000002 c-0.04830000000000001,0.04130000000000001 -0.10338,0.06200000000000001 -0.16535000000000002,0.06200000000000001 c-0.10336000000000001,0 -0.23427,-0.05860000000000001 -0.39274000000000003,-0.17570000000000002 c-0.15848000000000004,-0.12402000000000002 -0.3652,-0.25838000000000005 -0.6201200000000001,-0.40307000000000004 c-0.24805000000000002,-0.15159000000000003 -0.5477700000000001,-0.28595000000000004 -0.8991700000000001,-0.40308000000000005 c-0.3445200000000001,-0.12402000000000002 -0.7579300000000001,-0.18603000000000003 -1.24024,-0.18603000000000003 c-0.53054,0 -1.00597,0.11024000000000002 -1.42626,0.33073 c-0.41342000000000007,0.21359000000000003 -0.76826,0.5236500000000001 -1.06455,0.93017 c-0.2893800000000001,0.39964000000000005 -0.50987,0.8853900000000001 -0.66146,1.45728 c-0.15158000000000002,0.57188 -0.22737000000000002,1.21612 -0.22737000000000002,1.9327 c0,0.78548 0.07920000000000002,1.46761 0.23771000000000003,2.04638 c0.16536000000000003,0.5718900000000001 0.39619000000000004,1.04386 0.6924700000000001,1.41594 c0.30317000000000005,0.37206000000000006 0.6648900000000002,0.6511200000000001 1.08521,0.83716 c0.42718000000000006,0.17914000000000002 0.90606,0.26871 1.4366,0.26871 c0.4823200000000001,0 0.8991600000000001,-0.05510000000000001 1.2505600000000001,-0.16536000000000003 c0.35141000000000006,-0.11714000000000002 0.6511300000000001,-0.2446 0.8991800000000001,-0.3824100000000001 c0.25493,-0.1378 0.46165,-0.26182000000000005 0.6201200000000001,-0.37207000000000007 c0.16535000000000002,-0.11024000000000002 0.29283000000000003,-0.16536000000000003 0.38239000000000006,-0.16536000000000003 c0.06890000000000002,0 0.12404000000000001,0.013800000000000003 0.16537000000000002,0.04130000000000001 c0.04130000000000001,0.027500000000000007 0.0758,0.08270000000000002 0.10335,0.16536000000000003 c0.027500000000000007,0.08270000000000002 0.04820000000000001,0.19982000000000003 0.06200000000000001,0.35140000000000005 c0.013800000000000003,0.14470000000000002 0.020700000000000003,0.3410700000000001 0.020700000000000003,0.58911 c0,0.17226000000000002 -0.007000000000000002,0.3204000000000001 -0.020700000000000003,0.4444200000000001 c-0.007000000000000002,0.11713000000000003 -0.020700000000000003,0.22048000000000004 -0.04130000000000001,0.31006000000000006 c-0.020700000000000003,0.08270000000000002 -0.04820000000000001,0.15503000000000003 -0.08270000000000002,0.21704000000000004 c-0.03450000000000001,0.06200000000000001 -0.08960000000000003,0.13435 -0.16537000000000002,0.21704000000000004 c-0.0758,0.0758 -0.22393000000000005,0.17570000000000002 -0.4444100000000001,0.29973 c-0.21359000000000003,0.12402000000000002 -0.4788700000000001,0.24459000000000003 -0.7958200000000001,0.36173 c-0.31006000000000006,0.11025000000000001 -0.6683500000000001,0.20327 -1.07487,0.27905 c-0.3996200000000001,0.0758 -0.8337100000000001,0.11369000000000003 -1.30223,0.11369000000000003 c-0.9164,0 -1.7432400000000001,-0.14125000000000001 -2.48048,-0.42374 c-0.73726,-0.28250000000000003 -1.36426,-0.7028000000000001 -1.88103,-1.26091 c-0.51675,-0.5650000000000001 -0.9129400000000001,-1.26779 -1.18855,-2.1084 c-0.27561,-0.8406000000000001 -0.41341000000000006,-1.81901 -0.41341000000000006,-2.93522 c0,-1.1368800000000001 0.15157,-2.14629 0.45475,-3.02824 c0.30316000000000004,-0.8819400000000002 0.7269100000000001,-1.62264 1.27124,-2.22209 c0.54432,-0.5994400000000001 1.19544,-1.05419 1.9533800000000001,-1.36425 c0.7647900000000002,-0.31006000000000006 1.6054,-0.46509 2.52181,-0.46509 zm57.19443,4.92683 c-0.9164,0 -1.7570000000000001,0.15503000000000003 -2.52181,0.46508000000000005 c-0.7579200000000001,0.31006000000000006 -1.40904,0.7648200000000002 -1.95337,1.36426 c-0.54433,0.59945 -0.96806,1.34014 -1.27123,2.22209 c-0.30318000000000006,0.8819400000000002 -0.45475,1.89135 -0.45477,3.02824 c0.000019999999999999998,1.11621 0.13782,2.09461 0.41342000000000007,2.93522 c0.2756,0.8406000000000001 0.6717900000000002,1.5434 1.18855,2.1084 c0.51678,0.5581 1.14379,0.9784099999999999 1.88103,1.2609 c0.7372500000000001,0.28250000000000003 1.56407,0.42375 2.48047,0.42375 c0.46853,0 0.90261,-0.0379 1.30224,-0.11369000000000003 c0.40652000000000005,-0.0758 0.7648100000000001,-0.16881000000000004 1.07487,-0.27905 c0.31695000000000007,-0.11714000000000002 0.5822200000000001,-0.23771000000000003 0.79583,-0.36174 c0.22048000000000004,-0.12402000000000002 0.36861000000000005,-0.22393000000000005 0.4444100000000001,-0.29972000000000004 c0.0758,-0.08270000000000002 0.13091000000000003,-0.15504000000000004 0.16537000000000002,-0.21704000000000004 c0.03440000000000001,-0.06200000000000001 0.06200000000000001,-0.13436 0.08270000000000002,-0.21704000000000004 c0.020700000000000003,-0.08960000000000003 0.03450000000000001,-0.19292000000000004 0.04130000000000001,-0.31006000000000006 c0.013800000000000003,-0.12403000000000002 0.020700000000000003,-0.27216 0.020700000000000003,-0.4444200000000001 c0,-0.24804000000000004 -0.007000000000000002,-0.4444100000000001 -0.020700000000000003,-0.58911 c-0.013800000000000003,-0.15158000000000002 -0.03450000000000001,-0.26872 -0.06200000000000001,-0.35140000000000005 c-0.027600000000000006,-0.08270000000000002 -0.06200000000000001,-0.13783 -0.10336000000000001,-0.16536000000000003 c-0.04130000000000001,-0.027500000000000007 -0.09650000000000003,-0.04130000000000001 -0.16537000000000002,-0.04130000000000001 c-0.08960000000000003,0 -0.21704000000000004,0.05510000000000001 -0.3824000000000001,0.16536000000000003 c-0.15848000000000004,0.11024000000000002 -0.36518000000000006,0.23427 -0.6201200000000001,0.37207000000000007 c-0.24803000000000003,0.13781000000000002 -0.54776,0.26528 -0.8991700000000001,0.3824100000000001 c-0.35139000000000004,0.11024000000000002 -0.7682500000000001,0.16536000000000003 -1.2505600000000001,0.16536000000000003 c-0.53054,0 -1.00942,-0.08960000000000003 -1.43661,-0.26871 c-0.42030000000000006,-0.18604000000000004 -0.78203,-0.46509 -1.0852,-0.83716 c-0.29627000000000003,-0.37207000000000007 -0.52711,-0.8440500000000001 -0.6924600000000001,-1.41594 c-0.15848000000000004,-0.5787700000000001 -0.23772000000000001,-1.2609 -0.23772000000000001,-2.04638 c0,-0.71658 0.0758,-1.3608200000000001 0.22738000000000003,-1.9327 c0.15158000000000002,-0.57188 0.37206000000000006,-1.05764 0.6614500000000001,-1.45728 c0.29628000000000004,-0.40652000000000005 0.6511400000000002,-0.71657 1.06454,-0.93017 c0.4203100000000001,-0.22049000000000005 0.8957200000000002,-0.33073 1.42628,-0.33073 c0.48230000000000006,0 0.8957200000000002,0.06200000000000001 1.24022,0.18603000000000003 c0.35141000000000006,0.11714000000000002 0.6511300000000001,0.25149 0.8991700000000001,0.40308000000000005 c0.25494,0.14469 0.46164,0.27906000000000003 0.6201200000000001,0.40307000000000004 c0.15847000000000003,0.11714000000000002 0.28940000000000005,0.17571000000000003 0.39274000000000003,0.17571000000000003 c0.06200000000000001,0 0.11714000000000002,-0.020700000000000003 0.16536000000000003,-0.06200000000000001 c0.04820000000000001,-0.04130000000000001 0.08960000000000003,-0.1068 0.12404000000000001,-0.19637000000000002 c0.03450000000000001,-0.08960000000000003 0.05860000000000001,-0.20671000000000003 0.0723,-0.35140000000000005 c0.013800000000000003,-0.14470000000000002 0.020700000000000003,-0.32039000000000006 0.020700000000000003,-0.5271 c0,-0.19293000000000005 -0.007000000000000002,-0.35485000000000005 -0.020700000000000003,-0.48576 c-0.007000000000000002,-0.13092 -0.020700000000000003,-0.2446 -0.04130000000000001,-0.3410700000000001 c-0.020700000000000003,-0.09650000000000003 -0.04820000000000001,-0.17571000000000003 -0.08270000000000002,-0.23771000000000003 c-0.03440000000000001,-0.06200000000000001 -0.09990000000000003,-0.1378 -0.19638000000000003,-0.22737000000000002 c-0.08960000000000003,-0.09650000000000003 -0.25148000000000004,-0.21015 -0.48575,-0.3410700000000001 c-0.23427,-0.13091000000000003 -0.49955000000000005,-0.2446 -0.7958200000000001,-0.3410600000000001 c-0.28939000000000004,-0.10337 -0.6063400000000001,-0.18605000000000002 -0.9508400000000001,-0.24805000000000002 c-0.3445200000000001,-0.06200000000000001 -0.7028000000000001,-0.09300000000000003 -1.07487,-0.09300000000000003 zm9.27076,3.43131 c-0.40653,0 -0.8027200000000001,0.03440000000000001 -1.18857,0.10336000000000001 c-0.3789600000000001,0.06200000000000001 -0.73036,0.14469 -1.0542,0.24804000000000004 c-0.3238400000000001,0.10335 -0.60633,0.21705000000000002 -0.8474900000000001,0.3410700000000001 c-0.24116,0.11713000000000003 -0.40996000000000005,0.22737000000000002 -0.5064299999999999,0.33073 c-0.09650000000000003,0.09650000000000003 -0.16192000000000004,0.20670000000000002 -0.19637000000000002,0.33073 c-0.03440000000000001,0.12402000000000002 -0.05170000000000001,0.29283000000000003 -0.05170000000000001,0.50642 c0,0.15848000000000004 0.010300000000000002,0.30317000000000005 0.031000000000000007,0.43409000000000003 c0.020700000000000003,0.13091000000000003 0.04820000000000001,0.24115 0.08270000000000002,0.33073 c0.04130000000000001,0.08950000000000002 0.08960000000000003,0.15843000000000004 0.14471000000000003,0.20670000000000002 c0.06200000000000001,0.04830000000000001 0.13090000000000002,0.0724 0.20670000000000002,0.0724 c0.11025000000000001,0 0.25148000000000004,-0.04820000000000001 0.42374,-0.14469 c0.17914000000000002,-0.09650000000000003 0.39963000000000004,-0.20326000000000002 0.6614700000000001,-0.32039000000000006 c0.26181000000000004,-0.11714000000000002 0.56154,-0.22393000000000005 0.8991600000000001,-0.3204000000000001 c0.3445000000000001,-0.09650000000000003 0.7338000000000001,-0.14469 1.16788,-0.14469 c0.33073,0 0.6063500000000001,0.03440000000000001 0.8268400000000001,0.10335 c0.22737000000000002,0.06890000000000002 0.40651000000000004,0.17570000000000002 0.53743,0.32039000000000006 c0.1378,0.14469 0.23427,0.32729 0.2893800000000001,0.5477700000000001 c0.06200000000000001,0.2136 0.09300000000000003,0.46509 0.09300000000000003,0.75448 v0.5581 h-0.8991700000000001 c-0.81993,0 -1.53996,0.06200000000000001 -2.1600800000000002,0.18604000000000004 c-0.6201200000000001,0.12403000000000002 -1.14032,0.31695000000000007 -1.5606200000000001,0.5787800000000001 c-0.41342000000000007,0.25494 -0.7269200000000001,0.5822200000000001 -0.94052,0.98185 c-0.20670000000000002,0.39274000000000003 -0.31005000000000005,0.8578200000000001 -0.31005000000000005,1.39526 c0,0.49610000000000004 0.08270000000000002,0.93018 0.24804000000000004,1.30225 c0.16538000000000003,0.37207000000000007 0.39620000000000005,0.6855800000000001 0.6924700000000001,0.94051 c0.30317000000000005,0.24804000000000004 0.6580100000000001,0.4340800000000001 1.06453,0.5581 c0.41341000000000006,0.13092 0.8647300000000001,0.19637000000000002 1.35392,0.19637000000000002 c0.59256,0 1.12999,-0.11368000000000002 1.61231,-0.3410600000000001 c0.48921000000000003,-0.22737000000000002 0.92329,-0.54433 1.30224,-0.9508500000000001 v0.7338100000000001 c0,0.09650000000000003 0.027600000000000006,0.17224000000000003 0.08270000000000002,0.22738000000000003 c0.06200000000000001,0.05510000000000001 0.16192000000000004,0.09300000000000003 0.29973,0.11368000000000002 c0.14469,0.027500000000000007 0.37207000000000007,0.04130000000000001 0.6821300000000001,0.04130000000000001 c0.28939000000000004,0 0.5064299999999999,-0.013800000000000003 0.6511200000000001,-0.04130000000000001 c0.15158000000000002,-0.020700000000000003 0.26183,-0.05850000000000001 0.33073,-0.11368000000000002 c0.06890000000000002,-0.05510000000000001 0.10335,-0.13091000000000003 0.10335,-0.22738000000000003 v-6.20117 c0,-0.6339000000000001 -0.0758,-1.18167 -0.22737000000000002,-1.64331 c-0.15159000000000003,-0.46165 -0.39275000000000004,-0.83716 -0.7234700000000001,-1.12655 c-0.33073,-0.29627000000000003 -0.75448,-0.5133099999999999 -1.27124,-0.6511200000000001 c-0.50988,-0.14469 -1.12655,-0.21705000000000002 -1.8500200000000002,-0.21705000000000002 zm11.34813,0 c-0.19292000000000004,0 -0.3858500000000001,0.027500000000000007 -0.5787700000000001,0.08270000000000002 c-0.19293000000000005,0.04820000000000001 -0.3858500000000001,0.13781000000000002 -0.5787800000000001,0.26872 c-0.19292000000000004,0.13091000000000003 -0.3961800000000001,0.31006000000000006 -0.6097800000000001,0.53744 c-0.2136,0.22048000000000004 -0.4409700000000001,0.50297 -0.6821300000000001,0.8474900000000001 v-1.14722 c0,-0.06890000000000002 -0.017200000000000003,-0.12743000000000002 -0.05170000000000001,-0.17570000000000002 c-0.03450000000000001,-0.05510000000000001 -0.09300000000000003,-0.09990000000000003 -0.17571000000000003,-0.13436 c-0.0758,-0.03440000000000001 -0.18603000000000003,-0.05850000000000001 -0.33073,-0.0724 c-0.14469,-0.020700000000000003 -0.32728000000000007,-0.031000000000000007 -0.5477700000000001,-0.031000000000000007 c-0.21359000000000003,0 -0.39273,0.010300000000000002 -0.53743,0.031000000000000007 c-0.1378,0.013700000000000004 -0.25149,0.0379 -0.3410600000000001,0.0724 c-0.08960000000000003,0.03440000000000001 -0.15159000000000003,0.07920000000000002 -0.18604000000000004,0.13436 c-0.03440000000000001,0.04820000000000001 -0.05170000000000001,0.1068 -0.05170000000000001,0.17570000000000002 v9.21908 c0,0.06890000000000002 0.020700000000000003,0.13090000000000002 0.06200000000000001,0.18603000000000003 c0.04130000000000001,0.04820000000000001 0.11024000000000002,0.08960000000000003 0.20670000000000002,0.12403000000000002 c0.10335,0.03440000000000001 0.23771000000000003,0.05860000000000001 0.40308000000000005,0.0724 c0.16536000000000003,0.020700000000000003 0.37551000000000007,0.031000000000000007 0.6304500000000001,0.031000000000000007 c0.25494,0 0.46509,-0.010300000000000002 0.6304500000000001,-0.031000000000000007 c0.16537000000000002,-0.013700000000000004 0.29628000000000004,-0.0379 0.39274000000000003,-0.0724 c0.10336000000000001,-0.03440000000000001 0.17570000000000002,-0.0758 0.21705000000000002,-0.12403000000000002 c0.04130000000000001,-0.05510000000000001 0.06200000000000001,-0.11713000000000003 0.06200000000000001,-0.18603000000000003 v-5.7464200000000005 c0.19292000000000004,-0.30317000000000005 0.37207000000000007,-0.55811 0.53743,-0.7648100000000001 c0.17226000000000002,-0.20671000000000003 0.3341800000000001,-0.37207000000000007 0.48576,-0.49610000000000004 c0.15848000000000004,-0.12400000000000001 0.31006000000000006,-0.21358000000000002 0.45475,-0.26871 c0.14470000000000002,-0.06200000000000001 0.28939000000000004,-0.09300000000000003 0.43409000000000003,-0.09300000000000003 c0.12402000000000002,0 0.23771000000000003,0.013800000000000003 0.3410600000000001,0.04130000000000001 c0.10335,0.020700000000000003 0.19637000000000002,0.04480000000000001 0.27905,0.0724 c0.08960000000000003,0.027600000000000006 0.16881000000000004,0.05510000000000001 0.23771000000000003,0.08270000000000002 c0.06890000000000002,0.020700000000000003 0.13092,0.031000000000000007 0.18604000000000004,0.031000000000000007 c0.06890000000000002,0 0.12402000000000002,-0.017200000000000003 0.16536000000000003,-0.05170000000000001 c0.04820000000000001,-0.03450000000000001 0.08610000000000002,-0.09650000000000003 0.11369000000000003,-0.18604000000000004 c0.027600000000000006,-0.08960000000000003 0.04820000000000001,-0.2136 0.06200000000000001,-0.37207000000000007 c0.013800000000000003,-0.15847000000000003 0.020700000000000003,-0.36173 0.020700000000000003,-0.6097800000000001 c0,-0.24805000000000002 -0.003000000000000001,-0.4444200000000001 -0.010300000000000002,-0.58911 c-0.007000000000000002,-0.14469 -0.017200000000000003,-0.2515 -0.031000000000000007,-0.3204000000000001 c-0.013800000000000003,-0.0758 -0.031000000000000007,-0.13436 -0.05170000000000001,-0.17570000000000002 c-0.013800000000000003,-0.04130000000000001 -0.04130000000000001,-0.07920000000000002 -0.08270000000000002,-0.11368000000000002 c-0.03440000000000001,-0.03450000000000001 -0.09300000000000003,-0.06550000000000002 -0.17570000000000002,-0.09300000000000003 c-0.08270000000000002,-0.03450000000000001 -0.17914000000000002,-0.06200000000000001 -0.2893800000000001,-0.08270000000000002 c-0.11025000000000001,-0.027600000000000006 -0.21704000000000004,-0.04480000000000001 -0.3204000000000001,-0.05170000000000001 c-0.10335,-0.013800000000000003 -0.19981000000000004,-0.020700000000000003 -0.28939000000000004,-0.020700000000000003 zm6.76962,0 c-0.73036,0 -1.3883800000000002,0.12058 -1.97404,0.36174 c-0.5787800000000001,0.24115 -1.07143,0.59256 -1.47795,1.0542 c-0.40652000000000005,0.45475 -0.71658,1.01285 -0.93017,1.6743100000000002 c-0.2136,0.6545700000000001 -0.3204000000000001,1.39182 -0.3204000000000001,2.21175 c0,0.86128 0.09990000000000003,1.6123 0.29972000000000004,2.2531 c0.20671000000000003,0.6407800000000001 0.5167700000000001,1.17133 0.93018,1.59163 c0.41341000000000006,0.42030000000000006 0.92673,0.7338100000000001 1.53996,0.94051 c0.62011,0.20671000000000003 1.34014,0.31006000000000006 2.16007,0.31006000000000006 c0.45476,0 0.8819500000000001,-0.031000000000000007 1.28158,-0.09300000000000003 c0.39963000000000004,-0.05510000000000001 0.75448,-0.12058 1.06453,-0.19637000000000002 c0.31006000000000006,-0.08270000000000002 0.5650000000000001,-0.16536000000000003 0.7648100000000001,-0.24805000000000002 c0.19982000000000003,-0.08270000000000002 0.3204000000000001,-0.1481 0.36174,-0.19637000000000002 c0.04820000000000001,-0.04820000000000001 0.08610000000000002,-0.09640000000000003 0.11369000000000003,-0.14469 c0.027600000000000006,-0.05510000000000001 0.04820000000000001,-0.12058 0.06200000000000001,-0.19637000000000002 c0.013800000000000003,-0.0758 0.024100000000000003,-0.16537000000000002 0.031000000000000007,-0.26872 c0.007000000000000002,-0.11024000000000002 0.010300000000000002,-0.24115 0.010300000000000002,-0.39274000000000003 c0,-0.17225000000000001 -0.007000000000000002,-0.31350000000000006 -0.020700000000000003,-0.42375 c-0.007000000000000002,-0.11714000000000002 -0.024100000000000003,-0.20671000000000003 -0.05170000000000001,-0.26871 c-0.027600000000000006,-0.06200000000000001 -0.06200000000000001,-0.10336000000000001 -0.10335,-0.12403000000000002 c-0.04130000000000001,-0.027500000000000007 -0.09300000000000003,-0.04130000000000001 -0.15503000000000003,-0.04130000000000001 c-0.10335,0 -0.23771000000000003,0.03440000000000001 -0.40308000000000005,0.10335 c-0.16536000000000003,0.06200000000000001 -0.37551000000000007,0.13436 -0.6304500000000001,0.21705000000000002 c-0.24804000000000004,0.0758 -0.54432,0.14813 -0.8888300000000001,0.21704000000000004 c-0.3445100000000001,0.06200000000000001 -0.7441400000000001,0.09300000000000003 -1.1989,0.09300000000000003 c-0.4478500000000001,0 -0.8337100000000001,-0.05860000000000001 -1.15755,-0.17570000000000002 c-0.31695000000000007,-0.11713000000000003 -0.5787700000000001,-0.28594 -0.78548,-0.5064299999999999 c-0.19982000000000003,-0.22738000000000003 -0.3479500000000001,-0.49954000000000004 -0.4444200000000001,-0.81649 c-0.08960000000000003,-0.3238400000000001 -0.13436,-0.6821300000000001 -0.13436,-1.07487 h5.61207 c0.24804000000000004,0 0.4409800000000001,-0.0758 0.5787700000000001,-0.22738000000000003 c0.14469,-0.15158000000000002 0.21704000000000004,-0.38584000000000007 0.21704000000000004,-0.7028000000000001 v-0.41341000000000006 c0,-0.6476800000000001 -0.08270000000000002,-1.24712 -0.24805000000000002,-1.79834 c-0.16536000000000003,-0.55121 -0.42374,-1.02663 -0.77514,-1.4262700000000001 c-0.35140000000000005,-0.40651000000000004 -0.80271,-0.7234700000000001 -1.35392,-0.9508400000000001 c-0.54433,-0.22738000000000003 -1.20234,-0.3410700000000001 -1.97404,-0.3410700000000001 zm-0.06200000000000001,1.83968 c0.65456,0 1.1368800000000001,0.21016 1.44693,0.63046 c0.3169600000000001,0.41341000000000006 0.4651,0.98529 0.4444200000000001,1.7156500000000001 h-3.88607 c0.013800000000000003,-0.3238400000000001 0.06200000000000001,-0.6270100000000001 0.14470000000000002,-0.9095 c0.08960000000000003,-0.28940000000000005 0.21359000000000003,-0.53744 0.37207000000000007,-0.7441400000000001 c0.16536000000000003,-0.2136 0.36863,-0.3824100000000001 0.6097800000000001,-0.5064299999999999 c0.24805000000000002,-0.12403000000000002 0.53743,-0.18604000000000004 0.8681700000000001,-0.18604000000000004 zm-17.52865,4.05144 h0.99219 v1.57096 c-0.31695000000000007,0.35829 -0.63046,0.6304500000000001 -0.94051,0.81649 c-0.30317000000000005,0.18603000000000003 -0.6373400000000001,0.27905 -1.00253,0.27905 c-0.4340800000000001,0 -0.77513,-0.11024000000000002 -1.02319,-0.33073 c-0.24116,-0.22048000000000004 -0.36173,-0.5236500000000001 -0.36173,-0.9095 c0,-0.22738000000000003 0.04130000000000001,-0.4272 0.12402000000000002,-0.59945 c0.08960000000000003,-0.17915 0.22738000000000003,-0.33073 0.41342000000000007,-0.45475 c0.18603000000000003,-0.12404000000000001 0.42718000000000006,-0.21706000000000003 0.72346,-0.27906000000000003 c0.29628000000000004,-0.06200000000000001 0.65458,-0.09300000000000003 1.07487,-0.09300000000000003 z" id="path3724-7-7" inkscape:connector-curvature="0" inkscape:export-filename="D:\userdata\stomasz\Desktop\SHC_LOGO.png" inkscape:export-xdpi="96" inkscape:export-ydpi="96" class=""/>
  </g></svg>